<?xml version="1.0" standalone="no"?><!DOCTYPE svg PUBLIC "-//W3C//DTD SVG 1.1//EN" "http://www.w3.org/Graphics/SVG/1.1/DTD/svg11.dtd"><svg t="1552222438536" class="icon" style="" viewBox="0 0 1024 1024" version="1.1" xmlns="http://www.w3.org/2000/svg" p-id="13018" xmlns:xlink="http://www.w3.org/1999/xlink" width="200" height="200"><defs><style type="text/css"></style></defs><path d="M882.1 816.9H751.8c-12 0-21.8-9.7-21.8-21.8s9.8-21.8 21.8-21.8h130.3c12 0 21.8 9.7 21.8 21.8s-9.8 21.8-21.8 21.8zM882.1 751.6H751.8c-12 0-21.8-9.7-21.8-21.8s9.8-21.8 21.8-21.8h130.3c12 0 21.8 9.7 21.8 21.8s-9.8 21.8-21.8 21.8zM882.1 686.2H751.8c-12 0-21.8-9.7-21.8-21.8 0-12 9.8-21.8 21.8-21.8h130.3c12 0 21.8 9.7 21.8 21.8 0 12-9.8 21.8-21.8 21.8z" fill="#FFBC00" p-id="13019"></path><path d="M839 349.8c24 0 43.6 19.6 43.6 43.6v414.1c0 24-19.6 43.6-43.6 43.6H185.2c-24 0-43.6-19.6-43.6-43.6V393.4c0-24 19.6-43.6 43.6-43.6H839m0-43.5H185.2c-47.9 0-87.2 39.2-87.2 87.2v414.1c0 47.9 39.2 87.2 87.2 87.2H839c47.9 0 87.2-39.2 87.2-87.2V393.4c-0.1-47.9-39.3-87.1-87.2-87.1z" fill="#436DAA" p-id="13020"></path><path d="M632.8 447.8c11.8 0 21.8 10 21.8 21.8v261.5c0 11.8-10 21.8-21.8 21.8H262.4c-11.8 0-21.8-10-21.8-21.8V469.6c0-11.8 10-21.8 21.8-21.8h370.4m0-43.6H262.4c-36 0-65.4 29.4-65.4 65.4v261.5c0 36 29.4 65.4 65.4 65.4h370.5c36 0 65.4-29.4 65.4-65.4V469.6c-0.1-35.9-29.5-65.4-65.5-65.4z" fill="#436DAA" p-id="13021"></path><path d="M795.4 535c-36.1 0-65.4-29.3-65.4-65.4s29.3-65.4 65.4-65.4c36.1 0 65.4 29.3 65.4 65.4S831.4 535 795.4 535z m0-87.2c-12 0-21.8 9.8-21.8 21.8s9.8 21.8 21.8 21.8 21.8-9.8 21.8-21.8-9.8-21.8-21.8-21.8z" fill="#FFBC00" p-id="13022"></path> <path d="M445.5 338.3c-9.1 0-18.1-2.9-25.8-8.6l-120-99.4c-9.3-7.7-10.6-21.4-2.9-30.7 7.7-9.3 21.5-10.6 30.7-2.9l119 98.7 174.1-160.8c8.9-8.1 22.7-7.5 30.8 1.4 8.1 8.9 7.5 22.7-1.4 30.8L474.6 327.2c-8.5 7.4-18.8 11.1-29.1 11.1z" fill="#436DAA" p-id="13023"></path></svg>