<?xml version="1.0" standalone="no"?><!DOCTYPE svg PUBLIC "-//W3C//DTD SVG 1.1//EN" "http://www.w3.org/Graphics/SVG/1.1/DTD/svg11.dtd"><svg t="1552206054902" class="icon" style="" viewBox="0 0 1024 1024" version="1.1" xmlns="http://www.w3.org/2000/svg" p-id="3588" xmlns:xlink="http://www.w3.org/1999/xlink" width="200" height="200"><defs><style type="text/css"></style></defs><path d="M432.927395 557.755309 70.67969 557.755309c-28.581139 0-51.749672 23.16954-51.749672 51.749672l0 362.250727c0 28.57711 23.16954 51.749672 51.749672 51.749672l362.248713 0c28.581139 0 51.749672-23.172563 51.749672-51.749672l0-362.250727C484.677068 580.92485 461.508535 557.755309 432.927395 557.755309zM432.927395 945.879361c0 14.29057-11.58477 25.876347-25.874332 25.876347L96.554023 971.755709c-14.29057 0-25.87534-11.585778-25.87534-25.876347L70.678683 635.381328c0-14.29057 11.58477-25.876347 25.87534-25.876347l310.49904 0c14.29057 0 25.874332 11.585778 25.874332 25.876347L432.927395 945.879361z" p-id="3589"></path><path d="M950.425124 40.25758 588.177419 40.25758c-28.579124 0-51.749672 23.16954-51.749672 51.75068L536.427747 454.255965c0 28.580132 23.170548 51.749672 51.749672 51.749672l362.248713 0c28.580132 0 51.749672-23.16954 51.749672-51.749672L1002.175804 92.00826C1002.174797 63.427121 979.005256 40.25758 950.425124 40.25758zM950.425124 428.380625c0 14.29057-11.583763 25.874332-25.874332 25.874332L614.051752 454.254957c-14.291577 0-25.87534-11.58477-25.87534-25.874332L588.176412 117.881585c0-14.29057 11.583763-25.87534 25.87534-25.87534l310.500048 0c14.29057 0 25.874332 11.58477 25.874332 25.87534L950.426132 428.380625z" p-id="3590"></path><path d="M454.384405 44.91768c0.658821 0.284079 1.304546 0.596364 1.934153 0.931818C455.680892 45.526132 455.036174 45.214854 454.384405 44.91768z" p-id="3591"></path><path d="M454.189982 44.830039c0.064472 0.029214 0.128944 0.058428 0.194423 0.087641C454.318925 44.888466 454.255461 44.857238 454.189982 44.830039z" p-id="3592"></path><path d="M456.318558 45.848491c0.08059 0.04231 0.160172 0.082604 0.240762 0.123907C456.479737 45.929081 456.39814 45.891808 456.318558 45.848491z" p-id="3593"></path><path d="M456.559319 45.972398c-0.08059-0.041302-0.160172-0.082604-0.240762-0.123907-0.629607-0.335455-1.275332-0.64774-1.934153-0.931818-0.064472-0.029214-0.129951-0.058428-0.194423-0.087641-3.083564-1.296487-6.468331-2.014743-10.022337-2.014743-7.233933 0-13.767744 2.975775-18.463102 7.761796l-0.034251-0.033243c-6.093589 6.093589-13.406098 10.962215-21.528533 14.24423-7.481747 3.022114-15.649513 4.701402-24.214184 4.701402-17.861701 0-34.03404-7.239978-45.739695-18.94664C313.117702 29.472663 284.009708 16.4403 251.855423 16.4403c-32.153278 0-61.26228 13.032363-82.333465 34.103549-11.705655 11.705655-27.876987 18.947647-45.740702 18.947647-8.603958 0-16.807991-1.694399-24.315929-4.742704-8.080125-3.281008-15.356368-8.135531-21.423766-14.202928l-0.008059 0.008059c-4.704424-4.867618-11.28961-7.904843-18.59406-7.904843-2.587937 0-5.081181 0.39086-7.43843 1.097027-2.508355 0.972113-4.921009 2.132605-7.221845 3.465357-15.450054 8.952509-25.850155 25.654725-25.850155 44.795788L18.929011 454.255965c0 28.580132 23.16954 51.749672 51.749672 51.749672l362.248713 0c28.581139 0 51.749672-23.16954 51.749672-51.749672L484.677068 92.00826C484.677068 71.943438 473.252469 54.559231 456.559319 45.972398zM432.927395 428.380625c0 14.29057-11.58477 25.874332-25.874332 25.874332L96.554023 454.254957c-14.29057 0-25.87534-11.58477-25.87534-25.874332L70.678683 117.881585c0-3.046291 0.553047-5.955579 1.520123-8.669438 15.548776 7.69531 33.057897 12.030028 51.581441 12.030028 32.15227 0 61.26228-13.034378 82.332458-34.104556 11.706662-11.705655 27.879001-18.94664 45.740702-18.94664 17.862708 0 34.035047 7.23897 45.74171 18.94664 21.071186 21.071186 50.17918 34.102541 82.331451 34.102541 18.489293 0 36.458783-3.77865 51.985397-11.44676 0.957003 2.70177 1.013416 5.060026 1.013416 8.090199L432.925381 428.380625z" p-id="3594"></path><path d="M892.260512 868.203981c-2.010713-2.240394-4.32666-4.041574-6.824941-5.409584 22.833078-31.602246 36.298611-70.419285 36.298611-112.386374 0-106.103399-86.016415-192.119814-192.121829-192.119814s-192.120822 86.016415-192.120822 192.119814c0 106.106421 86.015408 192.122836 192.120822 192.122836 46.086231 0 88.376686-16.233789 121.48193-43.287753 0.774669 1.232015 1.657126 2.416684 2.661475 3.535873l95.07772 105.891851c9.548873 10.631797 25.907576 11.512239 36.538365 1.964374 10.632804-9.547865 11.515262-25.906568 1.965381-36.538365L892.260512 868.203981zM729.582132 890.779172c-77.524275 0-140.371149-62.846875-140.371149-140.372157 0-77.524275 62.846875-140.371149 140.371149-140.371149 77.525282 0 140.371149 62.846875 140.371149 140.371149C869.952274 827.932298 807.107414 890.779172 729.582132 890.779172z" p-id="3595"></path></svg>