<?xml version="1.0" standalone="no"?><!DOCTYPE svg PUBLIC "-//W3C//DTD SVG 1.1//EN" "http://www.w3.org/Graphics/SVG/1.1/DTD/svg11.dtd"><svg t="1552204592320" class="icon" style="" viewBox="0 0 1024 1024" version="1.1" xmlns="http://www.w3.org/2000/svg" p-id="842" xmlns:xlink="http://www.w3.org/1999/xlink" width="200" height="200"><defs><style type="text/css"></style></defs><path d="M979.84 404.544L574.272 84c-34.912-27.648-89.696-27.616-124.576 0L44.16 404.544c-13.856 10.976-16.224 31.104-5.28 44.96s30.624 16.224 44.48 5.28L96 444.416V832c0 54.944 57.888 96 108.8 96h640c50.304 0 83.2-38.592 83.2-96V445.92l11.68 8.864c5.888 4.64 13.12 6.88 20.064 6.88 9.44 0 18.912-4.16 25.216-12.16 10.976-13.856 8.768-33.984-5.12-44.96zM480 864V686.592c0-8.832 16-13.248 32-13.248s32 4.416 32 13.248V864h-64z m384-32c0 21.216-5.856 32-19.2 32H608.64c0-0.48-0.64-0.864-0.64-1.344V686.592c0-37.216-30.016-77.28-96-77.28s-96 40.064-96 77.28v176.064c0 0.48 0.864 0.864 0.864 1.344H204.8c-20.064 0-44.8-17.344-44.8-32V393.824l328.928-259.616c11.808-9.344 33.12-9.344 44.96 0L864 395.328V832z" p-id="843"></path></svg>