<?xml version="1.0" standalone="no"?><!DOCTYPE svg PUBLIC "-//W3C//DTD SVG 1.1//EN" "http://www.w3.org/Graphics/SVG/1.1/DTD/svg11.dtd"><svg t="1552222297031" class="icon" style="" viewBox="0 0 1024 1024" version="1.1" xmlns="http://www.w3.org/2000/svg" p-id="11951" xmlns:xlink="http://www.w3.org/1999/xlink" width="200" height="200"><defs><style type="text/css"></style></defs><path d="M749.26592 199.47008H211.78368c-53.01248 0-95.98464 42.9824-95.98464 95.98464V832.9216c-0.01024 53.0176 42.97216 96.01024 95.98464 96.02048h537.48224c53.00736 0 95.96416-42.98752 95.96416-95.98976V295.46496c0.03072-53.00736-42.94144-95.97952-95.9488-96l-0.01536 0.00512z m0 53.39648c11.3664 0 22.07744 4.45952 30.1056 12.48256a42.4448 42.4448 0 0 1 12.47744 30.12096V832.9216a42.60352 42.60352 0 0 1-42.5728 42.58816H211.78368a42.62912 42.62912 0 0 1-42.59328-42.58816V295.46496a42.69056 42.69056 0 0 1 42.59328-42.624h537.48224" fill="#B8528B" p-id="11952"></path><path d="M480.512 60.3648a219.4432 219.4432 0 0 1 156.17536 64.71168 219.43808 219.43808 0 0 1 64.6912 156.17536 26.69568 26.69568 0 0 1-53.39136 0c0-92.37504-75.14112-167.50592-167.46496-167.50592-92.35456 0-167.4752 75.13088-167.4752 167.50592a26.70592 26.70592 0 0 1-26.71616 26.68544 26.68544 26.68544 0 0 1-26.68032-26.68544c0-59.008 22.96832-114.47808 64.68096-156.17536A219.46368 219.46368 0 0 1 480.512 60.3648zM840.17152 359.0144c30.10048 13.20448 53.1712 53.16608 53.1712 86.96832v373.96992c0 40.67328-33.1008 73.7792-73.94304 73.7792l-68.58752 35.21024h68.58752c60.2112 0 109.16352-48.77312 109.16352-108.98944V445.98272c0-51.75808-37.32992-111.09376-88.39168-124.11904v37.15072z" fill="#B8528B" p-id="11953"></path> <path d="M425.04704 535.30112s-18.944 10.6496-24.84736 14.19776v-37.26848h56.79104v-46.15168l-63.0016-1.26464v-42.59328h56.79104v-42.5984H294.6048v42.5984h56.80128l-2.67776 43.85792H281.28768v46.15168h62.11584l-74.5472 131.33824 37.2736 37.25824 42.58816-65.65888 2.67776 105.22624 42.58816-28.40064 6.21056-99.90656 36.38272 71.51104 42.60352-28.40064-54.13376-99.89632zM550.17984 408.02304h-42.59328v212.98176l42.59328-28.39552zM692.16768 408.02304h-42.5984v141.98784l42.5984-28.40064z" fill="#B8528B" p-id="11954"></path><path d="M692.16768 550.01088l-70.99904 56.80128V365.42976h-42.59328v255.57504l-241.37728 156.1856 99.38944 28.40064 255.58016-198.77888z" fill="#B8528B" p-id="11955"></path></svg>