<?xml version="1.0" standalone="no"?><!DOCTYPE svg PUBLIC "-//W3C//DTD SVG 1.1//EN" "http://www.w3.org/Graphics/SVG/1.1/DTD/svg11.dtd"><svg t="1552220547635" class="icon" style="" viewBox="0 0 1024 1024" version="1.1" xmlns="http://www.w3.org/2000/svg" p-id="1788" xmlns:xlink="http://www.w3.org/1999/xlink" width="200" height="200"><defs><style type="text/css"></style></defs><path d="M506.5 520.5m-464.9 0a464.9 464.9 0 1 0 929.8 0 464.9 464.9 0 1 0-929.8 0Z" fill="#57AAC3" p-id="1789"></path><path d="M625.6 787.6c16 13.1 35.6 12.8 49.1-0.8 13.6-13.7 13.9-33.8 0.8-49-4.7-3.7-9.5-7.5-14.2-11.2 7.6-0.1 15.3 0 22.9-0.5 12-0.8 18.9-8.6 18.2-20-0.7-10.3-8.4-16-22-16H394c0.3-3 0.4-4.8 0.8-6.6l18-81.9c37.2-0.1 74.5 0 111.7-0.2 33.4-0.2 66.9-0.6 100.3-0.8 25.5-0.1 50.9 0.2 76.4-0.1 12.3-0.2 16.2-3.7 19.8-15.3l18.9-61.2c16.9-55.1 33.8-110.2 50.7-165.4 3.5-11.5-0.6-21-10.7-23.9-4.2-1.2-8.8-1-13.3-1-143.3 0-286.6-0.1-429.9 0.1-7.4 0-10.6-2.1-12.4-9.3-3.9-15.4-8.6-30.7-13.3-45.9-3.9-12.8-8.7-16-22.4-15.9-1.6-2-3-4.1-4.7-6-12.1-14-32.4-16.4-47.5-5.6-15.2 10.9-19.5 30.5-10.1 46.7 11.3 19.7 33.5 23.2 55.2 8.8 27.4 92.7 54.6 185.4 82.4 278 1.8 5.9 8.2 10.5 12.4 15.6-9.6 33.7-19.1 67.4-28.7 101-3.9 13.5 3.5 24.4 17.6 25 7.6 0.3 15.3 0.2 23 0.2-3.4 2.2-7 4.3-10.2 6.7-18.6 13.7-19.4 39.6-1.6 54.8 15.3 13 34.4 12.6 48.2-0.9 14.2-13.9 14.8-32.5 1.6-49-5.1-3.8-10.3-7.7-15.4-11.5 15.3-0.1 30.6-0.3 45.9-0.2 60.3 0.1 120.6 0.2 180.9 0.4-2.1 1.3-4.3 2.6-6.4 3.9-23.3 13.9-21.8 45.3-5.6 57z" fill="#FFFFFF" p-id="1790"></path><path d="M376.3 600.4c12.1 0.5 24.2 1 36.4 1.5l-18 81.9c-0.4 1.8-0.4 3.7-0.8 6.6h286.4c13.7 0 21.4 5.7 22 16 0.7 11.4-6.2 19.3-18.2 20-7.6 0.5-15.3 0.3-22.9 0.5h-23.6c-60.3-0.1-120.6-0.3-180.9-0.4-15.3 0-30.6 0.2-45.9 0.2-7.5 0-15 0-22.5-0.1-7.7-0.1-15.3 0.1-23-0.2-14.1-0.6-21.5-11.5-17.6-25 9.5-33.6 19-67.3 28.6-101z" fill="#DAE0E1" p-id="1791"></path><path d="M288.5 263c7.4 16.2 4.7 30.7-7.1 43.8-21.7 14.4-43.8 10.9-55.2-8.8-9.3-16.2-5.1-35.8 10.1-46.7 15-10.7 35.3-8.3 47.5 5.6 1.7 2 3.2 4.1 4.7 6.1z" fill="#C03F37" p-id="1792"></path><path d="M388.1 726.7c7.5 0 15 0 22.5 0.1 5.1 3.8 10.3 7.7 15.4 11.5-16.6 16.6-33.2 33.3-49.8 49.9-17.8-15.2-17-41.1 1.6-54.8 3.4-2.4 6.9-4.5 10.3-6.7zM637.5 726.8h23.6c4.7 3.7 9.5 7.5 14.2 11.2-16.6 16.6-33.3 33.2-49.9 49.8-16.1-11.7-17.7-43.1 5.6-57.2 2.3-1.2 4.4-2.5 6.5-3.8z" fill="#595C5F" p-id="1793"></path><path d="M625.5 787.9c16.6-16.6 33.3-33.2 49.9-49.8 13.1 15.2 12.8 35.4-0.8 49-13.6 13.6-33.2 14-49.1 0.8z" fill="#3E4041" p-id="1794"></path><path d="M376.3 788.1c16.6-16.6 33.2-33.3 49.8-49.9 13.2 16.4 12.6 35.1-1.6 49-13.9 13.6-32.9 13.9-48.2 0.9z" fill="#3E3F41" p-id="1795"></path><path d="M621.3 396.1c0.8-8.7-1.5-20.3 3.3-25.3 4.2-4.4 16.1-1.7 24.6-1.8 27.4-0.1 27.4 0 27.4 27.1 0 27.4 0 27.4-27.3 27.4-27.2 0.1-27.2 0.1-28-27.4z" fill="#5CADC6" p-id="1796"></path><path d="M480.4 422.9v-53.4h52.4v53.4h-52.4zM676 565.2h-53.2v-52.5H676v52.5zM409.3 422.9v-53.8c16.4 0 32.3-0.2 48.1 0.2 1.7 0 4.7 3.4 4.8 5.2 0.4 15.9 0.2 31.8 0.2 48.3-18.1 0.1-35.4 0.1-53.1 0.1zM551 369.5h52.9v53.7c-16.3 0-32.7 0.1-49.1-0.2-1.3 0-3.6-2.9-3.6-4.4-0.3-16.1-0.2-32.3-0.2-49.1zM622.1 441.5h54.4c0 16.4 0.1 32.5-0.2 48.6 0 1.5-3.1 4.2-4.8 4.3-14.6 0.3-29.3 0.4-43.9 0-1.9-0.1-5.2-3.1-5.2-4.8-0.5-15.8-0.3-31.6-0.3-48.1z" fill="#5BADC5" p-id="1797"></path><path d="M532.8 494.1h-52.3v-52.7h52.3v52.7z" fill="#58ABC5" p-id="1798"></path><path d="M551.4 494.1v-52.6h52.4v52.6h-52.4zM461.8 494.2h-52.3v-52.3h52.3v52.3z" fill="#59ACC4" p-id="1799"></path><path d="M462.1 512.9V565h-52.8v-52.1h52.8z" fill="#58ABC5" p-id="1800"></path><path d="M480.7 512.5h52v52.6h-52v-52.6z" fill="#57AAC3" p-id="1801"></path><path d="M551.3 565.1v-52.2h52.8v52.2h-52.8z" fill="#58ABC4" p-id="1802"></path><path d="M694.7 423.5v-53.9h56.4c-3.7 12.3-6.9 23.8-10.6 35.2-7.7 23.2-2 18.3-25.5 18.7-6.7 0.1-13.3 0-20.3 0z" fill="#5BADC5" p-id="1803"></path><path d="M337.4 369c17.2 0 32.5-0.3 47.7 0.3 2.2 0.1 5.9 4.4 6 6.9 0.6 13.3 0.2 26.7 0.3 40.1 0.1 5.3-2 7.6-7.3 7.4-6-0.2-12.2-0.9-18.1 0.1-10.8 1.8-14.3-3.5-16.5-13-3.2-13.6-7.7-26.8-12.1-41.8z" fill="#5DAEC6" p-id="1804"></path><path d="M694.4 496.1v-54.3h34.3c-5.2 16.7-9.6 33.5-16.2 49.5-1.3 3.2-10.9 3.1-18.1 4.8z" fill="#5BADC5" p-id="1805"></path><path d="M390.7 441.5v52.1c-15.6 2.7-15.7 2.7-19.9-11.2-4-13.3-7.8-26.7-11.9-40.8 10.9-0.1 20.9-0.1 31.8-0.1z" fill="#5FAEC6" p-id="1806"></path><path d="M379.7 512.6h11.1v32c-0.4 0.2-0.9 0.3-1.3 0.5-3.2-10.6-6.4-21.1-9.8-32.5z" fill="#71B8CC" p-id="1807"></path><path d="M694.6 512.7h11.9c-3.6 11.7-7.1 22.8-10.5 34-0.4-0.1-0.9-0.2-1.3-0.2-0.1-11.1-0.1-22.2-0.1-33.8z" fill="#5CADC6" p-id="1808"></path></svg>