<?xml version="1.0" standalone="no"?><!DOCTYPE svg PUBLIC "-//W3C//DTD SVG 1.1//EN" "http://www.w3.org/Graphics/SVG/1.1/DTD/svg11.dtd"><svg t="1552220826313" class="icon" style="" viewBox="0 0 1024 1024" version="1.1" xmlns="http://www.w3.org/2000/svg" p-id="1925" xmlns:xlink="http://www.w3.org/1999/xlink" width="200" height="200"><defs><style type="text/css"></style></defs><path d="M513.3 513.3m-445.3 0a445.3 445.3 0 1 0 890.6 0 445.3 445.3 0 1 0-890.6 0Z" fill="#E45362" p-id="1926"></path><path d="M490.4 440.9c0.8-6.8-2.9-8-8.7-7.8-5.6 0.2-10.6-0.1-9.7 7.7-38.8 0-77.6-0.1-116.5 0-13.6 0-19.4 5.3-19.2 18.6 0.4 40.9-0.2 81.9 2.2 122.7 1.9 32.8 13.5 63 36.2 87.9 2.7 3 5.5 5.9 9.8 10.5H233.6c0.6 10.2 5.7 17 12.9 20.9 13.2 7.4 26.7 15 40.9 19.8 58 19.6 118.5 24.8 179.2 27.2 32.6 1.2 65.4-0.1 98-1.3 46.4-1.6 92.4-7.1 137.5-18.5 22.8-5.8 45.3-12.7 64.5-27 6.7-5 12.3-10.8 13.6-20.7H629.5c8.4-10.7 15.8-21 24.1-30.5 3-3.5 7.7-6.3 12.2-7.5 17.6-4.8 36-7.3 53-13.6 41.9-15.5 62.7-47.2 61.4-89.9-1-31.6-16.9-53.9-45.8-60.8-11.3-2.7-23.5-2.1-35.3-1.8-7 0.2-13.9 2.7-21.6 4.4 0-7.4 0.1-13.8 0-20.2-0.3-14.6-5.4-19.7-20.2-19.8-55.6-0.1-111.2-0.1-166.9-0.3z m30.7-28.3c32.6-18.5 39.2-57.8 29.7-83.5-6.7-18.2-16.7-35.2-24.7-53-9.4-20.7-17.6-41.7-8-65.4-3.6 1.9-6.8 4-9.4 6.6-17.6 17.2-31 55.4-16 84.6 8.9 17.3 17.6 34.9 25.4 52.7 7.9 18.2 12.8 37 3 58z m-96.5-0.7c20.1-13.2 27.2-37.2 18-58.9-4.6-10.9-10.7-21.2-15.6-32-6.1-13.4-11.1-27.1-4.9-42.6-17.1 9.5-26.5 36.7-18.9 55.6 4.8 12.1 11.2 23.6 16.8 35.4 6.3 13.2 9.8 26.9 4.6 42.5z" fill="#FFFFFF" p-id="1927"></path><path d="M490.4 440.7c-0.2 23-0.5 45.9-0.7 68.9h-16.6c-0.2-20-0.4-39.9-0.7-59.9 0-3-0.3-6-0.4-9-0.9-7.8 4.2-7.5 9.7-7.7 5.8-0.3 9.5 0.9 8.7 7.7z" fill="#6C6C70" p-id="1928"></path> <path d="M475.1 507.1h16.6c1.5 0.1 9.1 0.2 10.5 0.2 27.5-0.2 36 16.6 38.7 23 1.6 3.7 2.5 5.9 2.6 8.1 0.1 35.1 0 68.7 0 104.6H423.1v-9.7c0-30.6-0.4-64.1 0.1-94.6 0.1-4.9 2.9-7.3 5.7-11.5 11-16.6 23.6-20.7 46.2-20.1z" fill="#FAD631" p-id="1929"></path><path d="M673.7 607.1c1.3-9 3.3-17.9 3.9-26.9 1.1-17.3 1.7-34.7 1.9-52 0.1-5.4 1.9-8.2 6.5-10.5 12.8-6.4 26.2-8 40-5.9 11.3 1.7 19.1 8.8 20.8 20.2 3.4 24.2 1.2 44.9-25.8 60-14.1 7.9-30.1 12.2-45.3 18.2-0.7-1.1-1.4-2.1-2-3.1z" fill="#E45463" p-id="1930"></path></svg>