<?xml version="1.0" standalone="no"?><!DOCTYPE svg PUBLIC "-//W3C//DTD SVG 1.1//EN" "http://www.w3.org/Graphics/SVG/1.1/DTD/svg11.dtd"><svg class="icon" width="200px" height="177.93px" viewBox="0 0 1151 1024" version="1.1" xmlns="http://www.w3.org/2000/svg"><path  d="M1141.756777 167.998172c-0.119378-43.914365-15.98948-81.382322-47.732071-112.289268-31.620826-31.026324-69.926816-46.538292-114.674439-46.418914L176.734249 9.28999c-44.75001-0.119378-83.053613 15.39259-114.676826 46.418914l0.119378 0C30.314831 86.61585 14.325351 124.083807 14.325351 167.998172l0 464.790804c0 43.794987 15.870102 81.145954 47.732071 112.289268 31.623213 30.906946 69.926816 46.301924 114.676826 46.301924l370.281685 0 325.412297 218.253893c2.506937 1.671291 5.128476 2.268181 8.112924 1.910047 2.984448-0.355746 5.372007-1.668903 7.401432-3.937084 2.029425-2.265793 2.982061-4.892108 2.982061-7.874168l0-208.352687 88.423232 0c44.747623 0 83.053613-15.39259 114.674439-46.301924 31.742591-31.143314 47.612693-68.494281 47.732071-112.28688L1141.754389 167.998172 1141.756777 167.998172zM1077.318958 72.772786c26.969862 26.253594 40.452405 57.993798 40.571783 95.225386l0 464.790804c-0.119378 37.112211-13.601921 68.854802-40.571783 95.227774-27.086852 26.370585-59.662701 39.497382-97.968691 39.497382l-100.35625 0c-3.223204 0-6.085887 1.193779-8.354067 3.581338-2.385171 2.265793-3.57895 5.128476-3.57895 8.35168l0 197.969195-309.780951-207.872788c-2.029425-1.313157-4.295218-2.029425-6.682776-2.029425L176.734249 767.514132c-38.303602 0-70.881839-13.126797-97.971079-39.497382-27.086852-26.372972-40.571783-58.115563-40.571783-95.227774L38.191387 167.998172c0-37.231589 13.484931-68.971792 40.571783-95.225386 27.08924-26.49235 59.665089-39.738525 97.971079-39.61676l802.616018 0C1017.653869 33.034261 1050.232106 46.280436 1077.318958 72.772786L1077.318958 72.772786zM919.802168 320.622854l0-38.067234c-12.529907-6.563399-32.339481-9.784215-59.187577-9.784215-27.564364 0-50.355998 6.563399-68.374903 19.690196-18.021292 13.246175-27.08924 31.026324-27.08924 53.579202 0 14.917466 4.295218 28.161253 12.885654 39.855515 8.709814 11.574884 26.611728 24.104791 53.69858 37.589722 19.56843 9.664837 32.936371 16.825125 40.094271 21.480865 7.04091 4.653352 12.649285 10.022971 16.708135 16.108858 4.056462 6.085887 6.085887 12.888041 6.085887 20.406463 0 27.086852-18.973928 40.571783-56.921784 40.571783-12.529907 0-25.656705-2.387559-39.499769-7.04091-13.840677-4.653352-24.938049-10.500483-33.175126-17.780149l0 39.857903c6.565786 4.414596 16.946891 8.112924 31.267467 11.094985 14.198811 2.984448 26.60934 4.416983 37.348579 4.416983 30.670578 0 54.536613-6.324643 71.83925-19.093306 17.302637-12.649285 25.893073-30.906946 25.893073-54.653603 0-15.870102-5.247854-30.0713-15.867714-42.839964-10.619861-12.768663-29.235655-25.417949-55.847383-38.067234-24.104791-11.933018-39.738525-21.359099-47.015804-28.161253-7.160288-6.921532-10.739238-15.870102-10.739238-26.731106 0-12.41053 5.250241-22.075367 15.633734-28.877521 10.381105-7.04091 23.866036-10.500483 40.452405-10.500483C882.931101 303.675964 903.452167 309.286726 919.802168 320.622854L919.802168 320.622854zM674.459036 315.370225l0.835646 0c-1.790669 20.762209-2.626314 38.544746-2.626314 53.340446l0 179.353401 34.84403 0L707.512397 277.305379l-45.108144 0-81.262944 184.961776c-2.506937 5.847131-6.682776 17.183259-12.768663 33.889007l-1.313157 0c-1.907659-7.995934-5.966509-18.973928-12.052396-33.175126l-79.832796-185.678043-47.373937 0L427.800359 548.064072l33.413882 0 0-177.801488c0-23.985414-0.59689-42.362452-1.790669-54.892359l1.074401 0c3.220817 14.559332 5.966509 24.224169 7.995934 28.877521l89.1395 203.816326 19.449052 0 89.258878-205.368239C668.731283 337.567358 671.476975 328.377645 674.459036 315.370225L674.459036 315.370225zM245.586663 343.056355c0-12.41053 5.250241-22.075367 15.631346-28.877521 10.381105-7.04091 23.866036-10.500483 40.452405-10.500483 24.940437 0 45.463891 5.608375 61.813892 16.944503l0-38.067234c-12.529907-6.563399-32.337093-9.784215-59.187577-9.784215-27.564364 0-50.358386 6.563399-68.37729 19.690196-18.018905 13.246175-27.086852 31.026324-27.086852 53.579202 0 14.917466 4.295218 28.161253 12.885654 39.855515 8.709814 11.574884 26.611728 24.104791 53.69858 37.589722 19.570818 9.664837 32.933983 16.825125 40.094271 21.480865 7.04091 4.653352 12.649285 10.022971 16.708135 16.108858 4.056462 6.085887 6.085887 12.888041 6.085887 20.406463 0 27.086852-18.973928 40.571783-56.919397 40.571783-12.529907 0-25.656705-2.387559-39.497382-7.04091-13.843065-4.653352-24.940437-10.500483-33.175126-17.780149l0 39.857903c6.563399 4.414596 16.944503 8.112924 31.26508 11.094985 14.201198 2.984448 26.611728 4.416983 37.350966 4.416983 30.66819 0 54.534226-6.324643 71.836863-19.093306 17.302637-12.649285 25.89546-30.906946 25.89546-54.653603 0-15.870102-5.250241-30.0713-15.870102-42.839964-10.619861-12.768663-29.235655-25.417949-55.847383-38.067234-24.104791-11.933018-39.738525-21.359099-47.015804-28.161253C249.168001 362.863541 245.586663 353.914971 245.586663 343.056355L245.586663 343.056355z" /></svg>