<?xml version="1.0" standalone="no"?><!DOCTYPE svg PUBLIC "-//W3C//DTD SVG 1.1//EN" "http://www.w3.org/Graphics/SVG/1.1/DTD/svg11.dtd"><svg class="icon" width="200px" height="200.00px" viewBox="0 0 1024 1024" version="1.1" xmlns="http://www.w3.org/2000/svg"><path  d="M707.2 341.952c6.816 0 13.568 0.288 20.192 0.64-27.776-151.488-179.008-267.232-361.376-267.232C163.936 75.328 0 217.504 0 392.704c0 99.616 52.832 188.416 135.296 246.528 13.984 9.92-44.896 106.688-29.472 114.56 20.416 10.656 115.936-68.416 138.752-61.44 37.92 11.616 78.784 17.856 121.376 17.856 5.6 0 11.264 0 16.8-0.256-7.136-23.808-11.008-48.832-11.008-74.72C371.808 473.504 522.24 341.952 707.2 341.952zM509.152 238.4c25.824 0 46.784 20.896 46.784 46.72 0 25.76-20.96 46.72-46.784 46.72-25.792 0-46.688-20.96-46.688-46.72C462.464 259.296 483.36 238.4 509.152 238.4zM222.304 331.84c-25.952 0-46.816-20.96-46.816-46.72 0-25.824 20.896-46.72 46.816-46.72 25.728 0 46.624 20.896 46.624 46.72C268.928 310.88 248.032 331.84 222.304 331.84zM390.464 635.232c0 151.904 141.888 274.88 316.704 274.88 36.928 0 72.224-5.472 105.152-15.456 19.776-6.08 102.272 62.24 120.096 53.184 13.312-6.944-37.632-90.688-25.568-99.2 71.456-50.304 117.12-127.232 117.12-213.408 0-151.616-141.824-274.624-316.8-274.624C532.352 360.608 390.464 483.584 390.464 635.232zM791.264 542.112c0-22.272 18.112-40.416 40.448-40.416s40.352 18.112 40.352 40.416c0 22.4-18.016 40.384-40.352 40.384S791.264 564.544 791.264 542.112zM542.976 542.112c0-22.272 17.984-40.416 40.384-40.416 22.272 0 40.416 18.112 40.416 40.416 0 22.4-18.112 40.384-40.416 40.384C560.96 582.496 542.976 564.544 542.976 542.112z" /></svg>