<?xml version="1.0" standalone="no"?><!DOCTYPE svg PUBLIC "-//W3C//DTD SVG 1.1//EN" "http://www.w3.org/Graphics/SVG/1.1/DTD/svg11.dtd"><svg class="icon" width="200px" height="199.80px" viewBox="0 0 1025 1024" version="1.1" xmlns="http://www.w3.org/2000/svg"><path d="M512.74478 577.983048c-77.095261 0-149.577302-30.022419-204.092273-84.53839-54.514971-54.514971-84.53839-126.996012-84.53839-204.092273s30.022419-149.577302 84.53739-204.092273S435.648519 0.722721 512.74378 0.722721c77.095261 0 149.577302 30.022419 204.092273 84.537391 54.514971 54.515971 84.53739 126.997012 84.53739 204.092273s-30.022419 149.577302-84.53739 204.092273c-54.514971 54.515971-126.996012 84.53839-204.091273 84.53839z m0-537.275751c-137.104113 0-248.646087 111.541974-248.646087 248.646087s111.541974 248.646087 248.646087 248.646087c137.103114 0 248.645087-111.541974 248.645087-248.646087S649.847893 40.707297 512.74478 40.707297zM935.523696 1024H89.964864c-49.606865 0-89.965297-40.358432-89.965297-89.965297V823.349399c0-49.606865 40.358432-89.965297 89.965297-89.965296h845.558832c49.606865 0 89.965297 40.358432 89.965297 89.965296v110.685304c0 49.606865-40.358432 89.965297-89.965297 89.965297zM89.964864 773.368679c-27.559369 0-49.98072 22.421351-49.980721 49.98072v110.685304c0 27.559369 22.421351 49.98072 49.980721 49.980721h845.558832c27.559369 0 49.98072-22.421351 49.98072-49.980721V823.349399c0-27.559369-22.421351-49.98072-49.98072-49.98072H89.964864z"  /><path d="M853.404373 775.93369c-12.086338 0-26.279863-0.709726-41.701914-2.835906-60.981477-8.407757-112.631553-35.109457-149.365383-77.219214C613.703836 640.129075 618.731896 584.314605 631.513965 547.30888c13.394833-38.78204 37.908377-64.650062 38.944978-65.732644l28.870863 27.663329-14.434432-13.831665 14.477415 13.786682c-0.199923 0.211918-20.140231 21.514701-30.467247 52.347807-13.01298 38.858011-5.086038 75.211988 23.561911 108.05232 30.470246 34.929526 72.007224 56.369256 123.456378 63.719421 39.505761 5.643823 70.282889 0.426835 70.588771 0.374855l6.987304 39.368814c-0.964628 0.171934-16.515629 2.875891-40.095533 2.875891zM172.081188 775.93369c-23.582903 0.001-39.130906-2.703957-40.096533-2.876891l7.028289-39.361816c0.264898 0.045982 31.042026 5.26297 70.548786-0.381853 51.448154-7.351164 92.985132-28.789895 123.455378-63.719421 28.943835-33.178202 36.735829-69.930025 23.160066-109.230865-10.397989-30.103388-29.829494-50.921357-30.022419-51.124279l28.870864-27.663329c1.0376 1.082582 25.550144 26.950604 38.945977 65.732644 12.782069 37.006725 17.80913 92.820195-30.823111 148.57069-36.73383 42.109756-88.383907 68.811457-149.365383 77.219214-15.419052 2.12518-29.616576 2.835906-41.701914 2.835906z"  /></svg>