<?xml version="1.0" standalone="no"?><!DOCTYPE svg PUBLIC "-//W3C//DTD SVG 1.1//EN" "http://www.w3.org/Graphics/SVG/1.1/DTD/svg11.dtd"><svg class="icon" width="200px" height="200.00px" viewBox="0 0 1024 1024" version="1.1" xmlns="http://www.w3.org/2000/svg"><path d="M326.144 573.8496h-2.0992a32.6656 32.6656 0 0 0-32.6656 34.1504 34.3552 34.3552 0 0 0 34.4064 33.5872 33.9456 33.9456 0 1 0 0.3584-67.8912zM325.1712 460.8h76.8l-42.0352 238.336a34.1504 34.1504 0 0 0 27.5456 39.5776 35.5328 35.5328 0 0 0 6.144 0.512 33.6384 33.6384 0 0 0 19.3536-6.144 34.1504 34.1504 0 0 0 14.08-22.016L439.2448 640h107.008l-10.24 60.3136a33.28 33.28 0 0 0 5.5808 25.344 33.8432 33.8432 0 0 0 61.1328-13.4656l12.288-67.072h89.088a36.1472 36.1472 0 0 0 32.9216-50.8416 34.7648 34.7648 0 0 0-32.3072-20.992H626.688l22.528-127.3856a33.5872 33.5872 0 0 0 4.4032-24.7296l1.792-10.24-0.3584 0.6656 13.568-76.3904a33.792 33.792 0 0 0-5.632-25.6 34.0992 34.0992 0 0 0-61.44 13.568L589.1072 394.24H482.7648v5.12l10.24-62.4128a33.2288 33.2288 0 0 0-5.5808-25.2928 33.8944 33.8944 0 0 0-61.44 13.4656L414.1056 394.24H323.7376a33.3824 33.3824 0 0 0-33.0752 37.4784A34.304 34.304 0 0 0 325.1712 460.8z m124.8256 112.64l20.48-112.64H578.56l-19.9168 112.64z m-36.4032 62.1056zM702.72 460.8h1.4336a34.304 34.304 0 0 0 34.4576-29.184 33.3312 33.3312 0 0 0-33.024-37.376h-1.4336a34.304 34.304 0 0 0-34.4576 29.184 33.28 33.28 0 0 0 33.024 37.376zM869.0688 172.9536A479.0784 479.0784 0 0 0 340.48 71.3728a484.8128 484.8128 0 0 0-256 262.0416 479.6928 479.6928 0 0 0 1.792 363.52L21.9136 936.3456a54.5792 54.5792 0 0 0 52.6336 68.7616 56.32 56.32 0 0 0 14.336-1.792l226.9184-60.672a479.6928 479.6928 0 0 0 392.6528 15.36 483.328 483.328 0 0 0 262.2464-256 479.8976 479.8976 0 0 0-101.632-529.0496zM149.0432 681.4208a415.9488 415.9488 0 1 1 370.7392 246.9888 411.3408 411.3408 0 0 1-185.1904-48.3328l-11.2128-5.9904L88.0128 936.96 153.6 691.8144z" /></svg>