<?xml version="1.0" standalone="no"?><!DOCTYPE svg PUBLIC "-//W3C//DTD SVG 1.1//EN" "http://www.w3.org/Graphics/SVG/1.1/DTD/svg11.dtd"><svg class="icon" width="200px" height="200.00px" viewBox="0 0 1024 1024" version="1.1" xmlns="http://www.w3.org/2000/svg"><path d="M320.443801 413.411918h383.090504c20.466864 0 37.119377-16.641566 37.119377-37.097483s-16.651296-37.097483-37.119377-37.097483H320.443801c-20.469296 0-37.121809 16.641566-37.121809 37.097483s16.652513 37.097483 37.121809 37.097483zM320.443801 577.613893h383.090504c20.466864 0 37.119377-16.642782 37.119377-37.097483s-16.651296-37.097483-37.119377-37.097484H320.443801c-20.469296 0-37.121809 16.642782-37.121809 37.097484s16.652513 37.097483 37.121809 37.097483zM894.773655 65.546995H129.21175c-65.922836 0-119.554849 53.632014-119.554849 119.55485v546.627155c0 65.922836 53.632014 119.554849 119.554849 119.554849H173.858875v67.117253c0 23.351953 18.986613 42.35073 42.323971 42.35073 6.283462 0 12.414886-1.395109 18.233717-4.152485l200.135447-95.594741c13.316172-6.36009 28.170977-9.720757 42.956453-9.720757h417.265192c65.924052 0 119.557282-53.632014 119.557281-119.554849V185.101845c0-65.922836-53.63323-119.554849-119.557281-119.55485z m-711.184293 711.541888h-54.377612c-25.011001 0-45.359883-20.347665-45.359883-45.359883V185.101845c0-25.011001 20.347665-45.359883 45.359883-45.359883h765.561905c25.012218 0 45.362316 20.347665 45.362315 45.359883v546.627155c0 25.011001-20.348882 45.359883-45.362315 45.359883H477.508463c-25.757816 0-51.668888 5.873565-74.933267 16.986999L248.053841 867.859735V841.553362c0-35.54547-28.919008-64.464479-64.464479-64.464479z" /></svg>