<?xml version="1.0" standalone="no"?><!DOCTYPE svg PUBLIC "-//W3C//DTD SVG 1.1//EN" "http://www.w3.org/Graphics/SVG/1.1/DTD/svg11.dtd"><svg class="icon" width="200px" height="199.80px" viewBox="0 0 1025 1024" version="1.1" xmlns="http://www.w3.org/2000/svg"><path d="M512.017321 0c-282.3197 0-512.017325 229.675204-512.017325 511.98879 0 282.324796 229.697625 512.01121 512.017325 512.01121 282.30849 0 511.994904-229.686415 511.994904-512.01121C1024.012225 229.675204 794.325811 0 512.017321 0zM512.017321 977.429438c-256.644082 0-465.429438-208.796567-465.429438-465.440648 0-256.632871 208.785357-465.418228 465.429438-465.418228 256.632871 0 465.418228 208.785357 465.418228 465.418228C977.436568 768.632871 768.650192 977.429438 512.017321 977.429438zM450.782693 589.043161l78.672728 0-18.921934 85.177748 204.077039 0c-1.978105 21.695969-3.747291 38.651008-5.326921 50.87531-2.762825 24.056242-17.739759 36.081816-44.951186 36.081816-29.190551 0-64.282805-1.182175-105.299182-3.547544 5.912913 16.955039 10.05766 32.726885 12.423029 47.32267l105.885174 0c47.71503 0 73.544535-25.630777 77.490553-76.899466 2.365369-25.238418 4.532011-55.998408 6.510116-92.278951L561.994789 635.774743l10.643652-46.730563L818.130331 589.04418l0-36.677999L450.782693 552.366181 450.782693 589.043161zM526.50508 505.042492l217.08606 0 0 13.606223 38.452281 0L782.04342 286.762028 654.859732 286.762028l0-54.417758-39.624265 0 0 54.417758L488.052799 286.762028l0 231.885668 38.452281 0L526.50508 505.042492zM654.859732 323.441047l88.731407 0 0 54.417758-88.731407 0L654.859732 323.441047zM654.859732 413.354629l88.731407 0 0 55.01496-88.731407 0L654.859732 413.354629zM526.50508 323.441047l88.731407 0 0 54.417758-88.731407 0L526.50508 323.441047zM526.50508 413.354629l88.731407 0 0 55.01496-88.731407 0L526.50508 413.354629zM427.118811 637.548006 427.118811 303.324708l39.049483 0 0-39.62936L231.917257 263.695348l0 39.62936 33.710332 0 0 365.574376c-13.009021 1.973009-25.630777 3.946019-37.855078 5.912913l10.05766 46.144571c49.693134-10.649766 99.176331-21.099786 148.470991-31.356173l0 123.635124 40.81765 0 0-132.505514 46.144571-9.466572c-2.365369-17.347399-3.747291-31.54471-4.144746-42.591931C454.529984 631.83382 440.526306 634.790277 427.118811 637.548006zM386.301161 645.832403c-27.609901 5.520554-54.224126 10.643652-79.855922 15.379486L306.445238 558.874259l79.855922 0L386.301161 645.832403zM386.301161 520.421978l-79.855922 0L306.445238 431.099483l79.855922 0L386.301161 520.421978zM386.301161 392.647203l-79.855922 0 0-89.322495 79.855922 0L386.301161 392.647203z" /></svg>