<?xml version="1.0" standalone="no"?><!DOCTYPE svg PUBLIC "-//W3C//DTD SVG 1.1//EN" "http://www.w3.org/Graphics/SVG/1.1/DTD/svg11.dtd"><svg class="icon" width="200px" height="200.00px" viewBox="0 0 1024 1024" version="1.1" xmlns="http://www.w3.org/2000/svg"><path d="M631.466667 590.506667c20.48 6.826667 37.546667 13.653333 58.026666 23.893333l6.826667 3.413333 47.786667-51.2-10.24-6.826666c-10.24-6.826667-20.48-10.24-30.72-17.066667 64.853333-58.026667 102.4-136.533333 102.4-225.28 0-163.84-129.706667-296.96-290.133334-296.96s-290.133333 133.12-290.133333 296.96c0 85.333333 37.546667 167.253333 102.4 225.28-150.186667 71.68-252.586667 221.866667-276.48 399.36l-3.413333 13.653333v3.413334c0 20.48 13.653333 34.133333 34.133333 34.133333s34.133333-17.066667 34.133333-34.133333v-13.653334c23.893333-167.253333 133.12-307.2 279.893334-358.4 71.68 37.546667 160.426667 37.546667 235.52 3.413334z m-167.253334-47.786667c-20.48-3.413333-40.96-13.653333-61.44-23.893333-71.68-40.96-116.053333-116.053333-116.053333-197.973334 0-126.293333 98.986667-228.693333 221.866667-228.693333s221.866667 102.4 221.866666 228.693333c0 81.92-44.373333 160.426667-116.053333 197.973334-20.48 10.24-40.96 17.066667-61.44 23.893333-27.306667 6.826667-58.026667 6.826667-88.746667 0zM959.146667 532.48l-23.893334-23.893333c-30.72-30.72-85.333333-30.72-116.053333 0l-266.24 269.653333-85.333333 225.28 221.866666-85.333333 269.653334-273.066667c30.72-30.72 30.72-81.92 0-112.64z m-389.12 368.64l30.72-81.92 51.2 51.2-81.92 30.72z m286.72-238.933333l-163.84 167.253333-54.613334-54.613333 163.84-167.253334 54.613334 54.613334z m58.026666-58.026667l-17.066666 17.066667-54.613334-54.613334 17.066667-17.066666c6.826667-6.826667 20.48-6.826667 30.72 0l23.893333 23.893333c10.24 10.24 10.24 23.893333 0 30.72zM979.626667 955.733333v-10.24c-10.24-75.093333-34.133333-146.773333-71.68-211.626666l-6.826667-10.24-51.2 51.2 3.413333 6.826666c30.72 51.2 51.2 109.226667 58.026667 170.666667l3.413333 13.653333c0 20.48 13.653333 34.133333 34.133334 34.133334 17.066667 0 34.133333-13.653333 34.133333-34.133334-3.413333-6.826667-3.413333-6.826667-3.413333-10.24z"  /></svg>