<?xml version="1.0" standalone="no"?><!DOCTYPE svg PUBLIC "-//W3C//DTD SVG 1.1//EN" "http://www.w3.org/Graphics/SVG/1.1/DTD/svg11.dtd"><svg class="icon" width="200px" height="200.00px" viewBox="0 0 1024 1024" version="1.1" xmlns="http://www.w3.org/2000/svg"><path d="M537.6 164.1984V435.2a25.6 25.6 0 1 1-51.2 0V164.1984L421.4784 229.12a25.6 25.6 0 1 1-36.1984-36.1984L512 66.2016l126.72 126.72a25.6 25.6 0 1 1-36.1984 36.1984L537.6 164.1984zM719.872 230.4a25.6 25.6 0 1 1 0-51.2H819.2c42.0352 0 76.8 32.4608 76.8 73.3696v621.2608c0 40.96-34.7648 73.3696-76.8 73.3696H204.8c-42.0352 0-76.8-32.4608-76.8-73.3696V252.5696c0-40.96 34.7648-73.3696 76.8-73.3696h102.8608a25.6 25.6 0 1 1 0 51.2H204.8c-14.5408 0-25.6 10.3424-25.6 22.1696v621.2608c0 11.8272 11.0592 22.1696 25.6 22.1696h614.4c14.5408 0 25.6-10.3424 25.6-22.1696V252.5696c0-11.8272-11.0592-22.1696-25.6-22.1696h-99.328zM332.8 563.2h358.4a25.6 25.6 0 1 1 0 51.2h-358.4a25.6 25.6 0 1 1 0-51.2z m0 153.6h358.4a25.6 25.6 0 1 1 0 51.2h-358.4a25.6 25.6 0 1 1 0-51.2z"  /></svg>