<?xml version="1.0" standalone="no"?><!DOCTYPE svg PUBLIC "-//W3C//DTD SVG 1.1//EN" "http://www.w3.org/Graphics/SVG/1.1/DTD/svg11.dtd"><svg class="icon" width="200px" height="199.80px" viewBox="0 0 1025 1024" version="1.1" xmlns="http://www.w3.org/2000/svg"><path d="M54.92266667 572.03200001l192 0c17.664 0 32-14.336 32-32s-14.336-32-32-32l-192 0c-17.664 0-32 14.336-32 32S37.25866667 572.03200001 54.92266667 572.03200001zM973.70666668 839.42400001l-110.20800001-110.208c34.112-43.52 55.36-97.6 55.36-157.248 0-141.376-114.624-256-255.99999999-256s-256 114.624-256.00000001 256 114.624 256 256.00000001 256c59.648 0 113.728-21.248 157.24799999-55.36l110.208 110.208c12.032 11.968 31.36 11.968 43.392 0C985.67466667 870.78400001 985.67466667 851.45600001 973.70666668 839.42400001zM800.07466667 706.04800001c-0.576 0.512-1.344 0.704-1.856 1.28s-0.768 1.344-1.28 1.856c-34.624 33.792-81.792 54.784-134.08 54.784-106.048 0-192-85.952-191.99999999-192s85.952-192 191.99999999-192 192 85.952 192.00000001 192C854.92266667 624.25600001 833.93066667 671.42400001 800.07466667 706.04800001zM54.92266667 188.03200001l576 0c17.664 0 32-14.336 32-32s-14.336-32-32-32l-576 0c-17.664 0-32 14.336-32 32S37.25866667 188.03200001 54.92266667 188.03200001zM310.92266667 316.03200001l-256 0c-17.664 0-32 14.336-32 32s14.336 32 32 32l256 0c17.664 0 32-14.336 32-32S328.58666668 316.03200001 310.92266667 316.03200001zM310.92266667 700.03200001l-256 0c-17.664 0-32 14.336-32 32s14.336 32 32 32l256 0c17.664 0 32-14.336 32-32S328.58666668 700.03200001 310.92266667 700.03200001z" /></svg>