<?xml version="1.0" standalone="no"?><!DOCTYPE svg PUBLIC "-//W3C//DTD SVG 1.1//EN" "http://www.w3.org/Graphics/SVG/1.1/DTD/svg11.dtd"><svg t="1541822224013" class="icon" style="" viewBox="0 0 1055 1024" version="1.1" xmlns="http://www.w3.org/2000/svg" p-id="19342" xmlns:xlink="http://www.w3.org/1999/xlink" width="206.0546875" height="200"><defs><style type="text/css"></style></defs><path d="M168.96 4.608h335.36c23.04 0 41.984 18.944 41.984 41.984 0 23.04-18.944 41.984-41.984 41.984H168.96c-38.4 0-69.632 31.232-69.632 69.632v706.56c0 38.4 31.232 69.632 69.632 69.632h716.8c38.4 0 69.632-31.232 69.632-69.632v-339.456c0-23.04 18.944-41.984 41.984-41.984 23.04 0 41.984 18.944 41.984 41.984v339.456c0 84.992-68.608 153.6-153.6 153.6H168.96c-84.992 0-153.6-68.608-153.6-153.6v-706.56C15.36 73.216 84.48 4.608 168.96 4.608z"  p-id="19343"></path><path d="M425.984 558.592L967.68 16.896c16.384-16.384 43.008-16.384 59.392 0 16.384 16.384 16.384 43.008 0 59.392L485.376 617.984c-16.384 16.384-43.008 16.384-59.392 0-16.384-16.384-16.384-43.008 0-59.392z"  p-id="19344"></path><path d="M719.872 630.272H455.68c-23.04 0-41.984-18.944-41.984-41.984 0-23.04 18.944-41.984 41.984-41.984h264.192c23.04 0 41.984 18.944 41.984 41.984 0 23.04-18.432 41.984-41.984 41.984z"  p-id="19345"></path><path d="M413.696 588.288V324.096c0-23.04 18.944-41.984 41.984-41.984 23.04 0 41.984 18.944 41.984 41.984v264.192c0 23.04-18.944 41.984-41.984 41.984-23.04 0-41.984-18.944-41.984-41.984z"  p-id="19346"></path></svg>