<?xml version="1.0" standalone="no"?><!DOCTYPE svg PUBLIC "-//W3C//DTD SVG 1.1//EN" "http://www.w3.org/Graphics/SVG/1.1/DTD/svg11.dtd"><svg t="1541821621456" class="icon" style="" viewBox="0 0 1024 1024" version="1.1" xmlns="http://www.w3.org/2000/svg" p-id="17789" xmlns:xlink="http://www.w3.org/1999/xlink" width="200" height="200"><defs><style type="text/css"></style></defs><path d="M202.386532 540.444444l149.117845-75.50707s133.602694 159.116498 154.289562 391.326599l-114.122559 49.131313c0 0.172391-152.565657-175.493603-189.284848-364.950842z m0 0"  p-id="17790"></path><path d="M415.461279 919.703704l97.400674-37.063973-18.618182 83.609427-78.782492-46.545454z m0 0"  p-id="17791"></path><path d="M997.279461 879.36431V136.016162c0-84.29899-59.129966-108.778451-91.022222-109.985186H84.988552v1.551516c-5.861279 0.689562-11.722559 1.896296-17.583838 3.964983-123.60404 44.821549 60.509091 422.012121 127.569023 488.899663l148.600674-74.989899S271.342761 160.323232 165.322559 60.681481h740.245118c2.241077 0 56.888889 2.93064 56.888889 75.16229v744.210101c0 0.344781 1.206734 36.546801-21.204041 60.3367-13.963636 14.825589-34.995286 22.238384-62.232996 22.238384H167.218855c-3.447811 0-86.195286-1.034343-86.195286-86.367677v-157.047811H46.200673v157.047811c0 95.849158 79.127273 121.190572 121.018182 121.190573h711.628283c37.236364 0 66.715152-11.205387 87.574411-33.09899 33.09899-34.822896 30.857912-83.954209 30.857912-84.988552z m0 0"  p-id="17792"></path><path d="M572.509091 269.274074h284.099663v69.645791H572.509091zM436.148148 443.216162h417.529966v66.715151H436.148148zM578.19798 649.050505h272.549495v72.40404H578.19798z"  p-id="17793"></path></svg>