<?xml version="1.0" standalone="no"?><!DOCTYPE svg PUBLIC "-//W3C//DTD SVG 1.1//EN" "http://www.w3.org/Graphics/SVG/1.1/DTD/svg11.dtd"><svg t="1541821807899" class="icon" style="" viewBox="0 0 1024 1024" version="1.1" xmlns="http://www.w3.org/2000/svg" p-id="17928" xmlns:xlink="http://www.w3.org/1999/xlink" width="200" height="200"><defs><style type="text/css"></style></defs><path d="M192.46 220.17c42.7 0 77.37-35 77.37-78.12s-34.67-78.13-77.37-78.13-77.36 35-77.36 78.13 34.66 78.12 77.36 78.12z m-2.55-130.46c27 0 48.9 22.11 48.9 49.38s-21.9 49.39-48.9 49.39S141 166.37 141 139.09s21.9-49.38 48.91-49.38z m693.72-20.16H391c-17.37 0-28.95 0.24-28.95 25.16S373.66 132.4 391 132.4h475.26s41.42-1.91 41.42 72.21v461.3s8 89.45-43.2 89.45h-473c-17.37 0-28.5 8.95-28.5 33.87s11.13 27.71 28.5 27.71h504.17c34.74 0 63.25-29.63 63.25-79.47V156.69c-0.44-60.7-23.16-87.14-75.27-87.14z m-474 241.65c0-32.17-17.13-58.8-37.83-58.8H127.59c-17.49 0-33.91 10.54-46 30.51s-18.2 45.49-17.14 72.66l7.86 215.22c1.42 38.83 20.7 69.89 45 73.78l10.34 259.59c1.43 31.06 17.85 55.47 37.84 55.47h50.67c20 0 36.76-24.41 37.84-55.47l19.2-497.56L373.27 370c20-1.11 36.4-27.18 36.4-58.8z m-55 20.52l-101.78 38.83c-5.35 1.66-9.63 8.87-9.63 17.75l-18.56 507c-0.35 10-5.71 18.31-11.78 18.31h-47.82c-6.06 0-11.42-7.77-11.78-18.31l-10.7-274c-0.36-10-5.72-18.31-11.78-18.31h-6.07c-12.49 0-22.84-16.08-23.55-36.6L94 353.91c-0.71-15.85 2.77-31.48 9.63-43.26s16.06-18.31 25.7-18.31h227.16c6.42 0 11.78 8.88 11.78 19.42s-5.36 19.41-11.78 19.41a2.73 2.73 0 0 0-1.78 0.55z m0 0" p-id="17929"></path><path d="M615.29 331h225c19.66 0 35.57-16.91 35.57-37.77s-15.91-37.77-35.57-37.77h-225c-19.66 0-35.58 16.91-35.58 37.77S595.63 331 615.29 331z m-103.54-75.59h-42.67c-19.66 0-35.59 16.91-35.59 37.77S449.42 331 469.08 331h42.67c19.66 0 35.58-16.91 35.58-37.77s-15.92-37.77-35.58-37.77z m328.53 151.1h-225c-19.66 0-35.58 16.91-35.58 37.77s15.92 37.78 35.58 37.78h225c19.66 0 35.57-16.92 35.57-37.78s-15.91-37.77-35.57-37.77z m-328.53 0h-42.67c-19.66 0-35.59 16.91-35.59 37.77s15.93 37.78 35.59 37.78h42.67c19.66 0 35.58-16.92 35.58-37.78s-15.92-37.77-35.58-37.77zM840.28 557.6h-225c-19.66 0-35.58 16.92-35.58 37.77s15.92 37.78 35.58 37.78h225c19.66 0 35.57-16.92 35.57-37.78s-15.91-37.77-35.57-37.77z m-328.53 0h-42.67c-19.66 0-35.59 16.92-35.59 37.77s15.93 37.78 35.59 37.78h42.67c19.66 0 35.58-16.92 35.58-37.78s-15.92-37.77-35.58-37.77z m0 0" p-id="17930"></path></svg>