<?xml version="1.0" standalone="no"?><!DOCTYPE svg PUBLIC "-//W3C//DTD SVG 1.1//EN" "http://www.w3.org/Graphics/SVG/1.1/DTD/svg11.dtd"><svg t="1545632312953" class="icon" style="" viewBox="0 0 1024 1024" version="1.1" xmlns="http://www.w3.org/2000/svg" p-id="1848" xmlns:xlink="http://www.w3.org/1999/xlink" width="200" height="200"><defs><style type="text/css"></style></defs><path d="M771.51915 905.677151c-44.453445 0-84.825944-25.349341-104.470353-64.332191H356.988042c-19.597337 38.98285-60.018955 64.332191-104.510262 64.332191-50.231031 0-94.451162-32.015158-110.654192-78.909188-50.429553-24.788569-80.916914-78.043471-76.651774-135.411039l9.246594-123.105782c3.958148-52.844555 35.515888-99.779517 83.152839-124.71442l38.823214-182.569082c16.746406-78.652338 95.78146-142.643768 176.195931-142.643768h278.859125c80.414471 0 159.461805 63.99143 176.170349 142.677537l38.809911 182.535313c47.601134 24.89397 79.160921 71.834049 83.154885 124.70828l9.244548 123.111922c4.267187 57.407478-26.222221 110.62247-76.638471 135.411039-16.143679 46.933939-60.32697 78.909188-110.671589 78.909188zM330.495668 802.360064h363.046526l4.647857 12.902868c11.223622 31.254841 40.027645 51.429323 73.330122 51.429323 35.764552 0 66.86692-24.205285 75.69396-58.85034l2.396583-9.518794 9.134031-3.725858c39.882336-16.295128 64.470337-56.605206 61.186548-100.348476l-9.244549-123.109875c-3.122107-41.833781-29.677926-78.798671-69.263503-96.424097l-9.097192-4.036943-42.844807-201.568808c-13.09218-61.667501-75.015507-111.801319-138.03275-111.801319H372.589368c-63.019289 0-124.978433 50.133817-138.072658 111.801319l-42.842761 201.568808-9.097192 4.036943c-39.620369 17.665335-66.175165 54.589292-69.263503 96.424097l-9.244549 123.109875c-3.281743 43.74327 21.304212 84.053348 61.223387 100.348476l9.05933 3.692089 2.434445 9.516747c8.876158 34.681894 40.004109 58.890248 75.691913 58.890249 33.340339 0 62.146409-20.174482 73.370031-51.427276l4.647857-12.909008z m404.745231-81.882916c-21.453614 0-42.462091-8.714476-57.607023-23.868617-15.183817-15.187911-23.90034-36.20355-23.900339-57.67149s8.716522-42.48358 23.900339-57.671491c30.253024-30.265304 84.825944-30.376844 115.227348-0.039909 15.183817 15.192004 23.898293 36.243459 23.898293 57.7114s-8.714476 42.519396-23.860431 57.67149c-15.219633 15.189957-36.230156 23.868617-57.658187 23.868617z m0-124.103505c-11.028171 0-22.251793 4.649903-30.057573 12.451589-7.807826 7.801686-12.479219 19.072381-12.479219 30.112832s4.671393 22.307052 12.479219 30.108738c15.601326 15.609513 44.528146 15.645328 60.201103-0.029676 7.769964-7.772011 12.404518-19.037589 12.404518-30.078039s-4.634554-22.311145-12.440333-30.112831c-7.806803-7.80271-19.066241-12.452613-30.107715-12.452613zM288.743752 720.477148c-21.451568 0-42.462091-8.714476-57.607023-23.868617-15.181771-15.187911-23.898293-36.20355-23.898293-57.67149s8.716522-42.48358 23.898293-57.671491c30.255071-30.265304 84.825944-30.376844 115.229395-0.039909 15.181771 15.192004 23.898293 36.243459 23.898293 57.7114s-8.716522 42.519396-23.862478 57.67149c-15.219633 15.189957-36.230156 23.868617-57.658187 23.868617z m0-124.103505c-11.028171 0-22.251793 4.649903-30.057573 12.451589s-12.489452 19.072381-12.489452 30.112832 4.683672 22.307052 12.489452 30.108738c15.601326 15.609513 44.528146 15.645328 60.201103-0.029676 7.772011-7.772011 12.404518-19.037589 12.404518-30.078039s-4.632507-22.311145-12.440333-30.112831c-7.804756-7.80271-19.066241-12.452613-30.107715-12.452613z m413.391145-94.02342H321.814961c-15.97995 0-30.057573-6.284123-39.610136-17.665335-9.095145-10.463306-13.056364-25.498744-10.620895-40.9916l0.920976-4.194532 32.947389-143.552464c5.680373-30.984688 36.696784-56.909128 68.920696-56.909127h275.220249c32.269961 0 63.238276 25.924439 69.064982 57.784054l33.03437 143.556557c3.122107 19.182898-0.874927 33.992185-10.587126 45.032636-8.7902 10.622942-23.099091 16.939811-38.970569 16.939811zM374.371968 278.016945c-13.622252 0-28.265764 12.296047-30.746258 25.849737l-33.365922 145.227616c-0.810459 4.679579-0.159636 8.300037 1.585101 10.31902 2.7793 3.311419 6.934946 3.954055 9.970072 3.954055H702.134897c4.117784 0 7.659447-1.25355 9.331529-3.236718 2.998287-3.421936 2.777253-7.990998 2.396583-10.42749l-33.377178-144.999418c-2.629897-14.389732-17.271362-26.685779-30.905894-26.685779h-275.207969v-0.001023z" p-id="1849"></path></svg>