<?xml version="1.0" standalone="no"?><!DOCTYPE svg PUBLIC "-//W3C//DTD SVG 1.1//EN" "http://www.w3.org/Graphics/SVG/1.1/DTD/svg11.dtd"><svg t="1542855116718" class="icon" style="" viewBox="0 0 1024 1024" version="1.1" xmlns="http://www.w3.org/2000/svg" p-id="3524" xmlns:xlink="http://www.w3.org/1999/xlink" width="200" height="200"><defs><style type="text/css"></style></defs><path d="M320.356238 543.665187c-50.458205 43.256176-106.016569 77.462233-164.451446 108.980064 1.941212 1.211595 2.918469 1.914606 3.973498 2.468215 91.496877 47.970548 183.570899 94.755084 278.805914 135.003763 19.0908 8.068769 38.261419 15.95232 57.483202 23.703865 36.354999 14.660908 71.90875 11.508102 107.201557-4.348028 63.738673-28.636201 116.323309-71.777767 162.557306-123.406634 62.562894-69.862137 111.854531-147.81965 144.186913-236.116649 13.84124-37.799908 24.908296-76.371388 30.214139-116.371404 1.824555-13.753235 2.62785-27.65178 3.631714-41.502229 0.876973-12.092409-1.566682-15.3455-13.314237-18.644639-47.384194-13.308097-94.771457-26.602891-142.165884-39.874149-81.604576-22.851451-163.214269-45.680389-244.821915-68.520583-13.426801-3.75758-14.846126-3.02387-15.826454 10.662851-2.90005 40.470737-10.207479 80.013335-24.108071 118.223588-1.707898 4.692882-3.217275 9.508561-5.446036 13.951757-4.424776 8.819876-3.499707 16.579607 1.819438 24.992207 17.260106 27.298739 31.283494 56.289004 42.929742 86.404905 12.634762 32.67519 22.693862 66.134233 29.92352 100.426247 0.414439 1.967818 0.535189 3.998057 0.792039 5.998621-0.508583 0.410346-1.017166 0.821715-1.526773 1.232061-0.967024-1.529843-1.733481-3.241834-2.930749-4.561899-50.352805-55.535851-103.051027-108.687398-160.780847-156.63441-48.4075-40.204677-98.630345-77.81425-155.719574-105.165178-9.989515-4.786003-20.405749-8.686846-30.676673-12.868075-1.805112-0.734734-3.871167-0.828878-5.816472-1.218758-0.430812 0.478907-0.861624 0.958838-1.291412 1.437745 1.533936 1.723248 2.817162 3.791349 4.63967 5.117554 26.061562 18.957771 52.709479 37.150108 78.202083 56.840566 46.421262 35.855626 89.750093 75.403341 130.508379 117.470435 69.255317 71.478961 137.245827 144.18282 205.726501 216.411865 2.27788 2.402723 4.367471 5.074575 6.083555 7.900947 4.424776 7.287987 3.270487 15.08865-2.841721 21.269419-5.349845 5.41022-13.395078 6.399757-20.402679 2.114151-2.802836-1.714038-5.371334-3.971451-7.644097-6.362918-12.255115-12.899798-24.628934-25.700335-36.473703-38.972617-8.68173-9.727549-18.804275-17.051351-30.518061-22.668279-68.278059-32.741705-136.284943-66.024739-202.258517-103.282295-59.402925-33.546024-117.396757-69.330018-172.257226-109.954251-15.873526-11.754718-30.726815-24.886807-46.047756-37.387515 0.220011-0.607844 0.438998-1.215688 0.659009-1.823532 2.381234-0.370437 4.76042-1.034563 7.145747-1.062192 12.762675-0.151449 25.527396-0.076748 38.289048-0.272199 1.740644-0.026606 3.463891-1.128707 5.196349-1.733481-1.073448-1.429559-1.837858-3.427052-3.26537-4.202719-23.054065-12.514012-47.343261-22.137183-72.883961-27.878954-13.038968-2.930749-22.621207-8.990768-30.857798-19.437701-19.277042-24.453948-36.879955-49.719378-45.606711-80.056314-7.883551-27.406187-8.077979-54.798047 1.300622-81.978083 0.782829-2.26867 1.713015-4.492314 2.680039-6.690376 1.974981-4.489244 5.39794-5.948479 9.965979-4.304026 2.777253 0.99977 5.53097 2.160199 8.125051 3.562129 22.473851 12.144598 44.909839 24.361851 67.359131 36.552497 1.102101 0.598634 2.231831 1.146103 3.348258 1.717108 0.547469-0.248663 1.094938-0.497327 1.642406-0.74599-0.973164-2.830465-1.393743-6.033413-3.007497-8.432043C98.42159 139.740648 83.34215 121.254621 65.986877 104.643292c-8.258081-7.90504-7.526417-9.914814 3.540639-13.458523 21.620413-6.92369 43.673685-7.405667 65.983807-4.883217 25.495674 2.882654 50.175773 9.274224 74.562183 17.016559 15.492856 4.91801 27.28339 14.716166 36.440957 27.78481 22.322401 31.856545 44.601824 63.751976 62.298881 98.538247 0.475837 0.936325 1.054005 1.820462 2.448772 4.209882 1.487887-31.81152-5.939269-60.789505-12.308327-90.450035 1.249457 0.493234 1.945305 0.64059 2.499937 1.004887 30.013571 19.732413 61.146639 37.799908 89.011266 60.715827 19.962657 16.417925 36.975123 35.246759 49.712215 57.8168 0.449231 0.795109 0.969071 1.550309 2.291183 3.65218 2.865257-9.145287 5.640464-17.172101 7.896854-25.343201 10.154267-36.770462 12.947893-74.312496 11.752672-112.300692-0.213871-6.78145 0.209778-13.755282 1.581008-20.383236 4.15667-20.086477 20.901029-26.900673 37.33328-23.168676 22.526039 5.117554 44.711318 11.775184 66.969251 18.031679 136.798643 38.452777 273.577842 76.977185 410.362158 115.481128 1.423419 0.401136 2.844791 0.814552 4.253884 1.264806 18.182105 5.816472 24.692379 14.015202 25.898857 32.92897 2.311649 36.220946 0.264013 72.204485-6.080485 107.942431-12.237719 68.943209-36.878932 133.636626-67.784826 196.090027-44.417629 89.75828-103.722316 168.18242-179.612751 233.806024-44.24162 38.256302-92.442412 70.070892-148.637272 87.855954-19.318998 6.114255-39.402405 10.317996-59.44181 13.416568-9.069563 1.401929-19.192108-0.920976-28.312836-3.447519-48.626487-13.468756-95.217618-32.482809-141.211139-53.04717-100.457969-44.915979-198.241017-95.157243-294.729581-147.975193-6.486738-3.550873-12.995989-7.166213-19.041682-11.398608-19.133779-13.395078-17.692964-42.760896 2.817162-53.948703 10.70276-5.837962 22.033829-10.520611 33.060977-15.766079 51.701522-24.590048 100.087533-54.625108 145.907091-88.87619 2.223644-1.662873 4.505617-3.258207 6.841825-4.758374 4.387937-2.818185 8.954953-3.362584 13.627369-0.675382C283.869233 522.644431 301.809837 532.983917 320.356238 543.665187z" p-id="3525"></path></svg>