<?xml version="1.0" standalone="no"?><!DOCTYPE svg PUBLIC "-//W3C//DTD SVG 1.1//EN" "http://www.w3.org/Graphics/SVG/1.1/DTD/svg11.dtd"><svg t="1542854809860" class="icon" style="" viewBox="0 0 1024 1024" version="1.1" xmlns="http://www.w3.org/2000/svg" p-id="1570" xmlns:xlink="http://www.w3.org/1999/xlink" width="200" height="200"><defs><style type="text/css"></style></defs><path d="M287.51872 353.23904l0-26.7264-29.57312 0 0-22.54848c0-6.32832 0.7168-11.96032 2.82624-17.57184 0.69632-1.41312 1.41312-2.1504 1.41312-2.82624-0.7168-0.69632-3.52256-0.69632-7.74144-0.69632-3.52256-0.7168-13.37344-1.41312-29.55264-1.41312l0 45.056L186.1632 326.51264l0 26.7264 38.7072 0 0 35.18464-44.3392 11.9808 14.09024 32.37888 28.83584-11.96032 0 42.94656c1.41312 8.41728-9.13408 11.24352-32.37888 8.41728 6.3488 7.0656 11.264 17.6128 13.37344 30.96576 37.31456 2.12992 55.6032-6.32832 53.49376-25.2928l0-69.67296c2.82624-0.73728 7.02464-2.12992 14.06976-4.23936 5.632-0.69632 9.85088-2.12992 13.37344-3.50208L284.672 370.13504c-9.13408 4.23936-19.00544 7.74144-28.16 10.56768l0-27.4432L287.51872 353.25952z" p-id="1571"></path><path d="M704.83968 161.81248 704.83968 149.85216c0-8.45824 0.67584-16.896 2.82624-25.33376 2.10944-6.3488 3.50208-11.264 3.50208-15.48288 4.23936-4.23936-12.65664-6.3488-50.66752-6.3488l-47.18592 0 0 59.12576-129.47456 0L483.84 140.00128 139.71456 140.00128l0 81.65376 47.14496 0 0 46.44864 82.35008 0 0-46.44864 0 0 75.30496 0 0 0 0 46.44864 82.35008 0 0-46.44864 0 0 0 0 44.3392 0 0 259.66592 378.61376 0 0-319.488L704.83968 161.83296zM613.31456 406.016l-54.1696 0 0-49.95072 54.1696 0L613.31456 406.016zM616.16128 287.08864l-56.99584 0 0-49.95072 56.99584 0L616.16128 287.08864zM755.5072 406.016l-54.19008 0 0-49.95072 54.19008 0L755.5072 406.016zM755.5072 287.08864l-54.19008 0 0-49.95072 54.19008 0L755.5072 287.08864z" p-id="1572"></path><path d="M356.47488 368.04608c5.632 9.8304 8.43776 19.68128 8.43776 30.22848 35.90144 2.12992 53.49376-4.9152 52.77696-20.39808 2.12992-11.9808 4.23936-33.77152 7.04512-64.75776 0.69632-6.32832 1.39264-13.39392 2.10944-20.39808l-137.9328 0 0 25.31328 36.59776 0c-1.41312 33.09568-14.76608 55.58272-38.7072 67.56352 10.5472 11.24352 17.57184 17.59232 20.41856 19.72224l-10.56768 0 0 99.92192 31.66208 0 0-12.67712 53.49376 0 0 12.67712 36.59776 0 0-99.92192-106.27072 0c31.66208-21.13536 47.14496-49.9712 47.14496-87.28576l31.66208 0c-4.21888 19.70176-6.32832 33.09568-7.02464 40.83712C384.6144 367.3088 375.45984 370.13504 356.47488 368.04608L356.47488 368.04608zM328.31488 431.37024l54.90688 0 0 37.29408-54.90688 0L328.31488 431.37024z" p-id="1573"></path><path d="M426.84416 517.91872l-87.9616 0 0 100.63872c-23.22432 4.21888-45.75232 7.02464-66.1504 9.13408l0-109.7728 0 0L186.85952 517.91872l0 122.44992c-20.39808 6.3488-36.59776 9.8304-47.14496 9.8304 2.10944 9.85088 6.3488 24.63744 12.67712 43.64288 4.21888 20.39808 8.43776 35.20512 12.67712 43.66336l2.80576 0c2.80576 0 9.15456-1.41312 18.98496-3.56352 21.11488-10.56768 71.80288-23.92064 152.02304-40.09984l0 228.0448 87.9616-142.19264 0-102.03136c6.3488 0 16.19968-0.67584 28.85632-2.80576 12.67712-2.10944 22.528-4.21888 30.96576-6.3488 0-23.22432 1.41312-47.86176 3.52256-74.60864l-63.34464 11.9808L426.84416 517.91872z" p-id="1574"></path><path d="M884.30592 577.72032l0-71.76192-432.128 0 0 71.76192 116.81792 0c-8.43776 35.90144-16.87552 71.12704-25.33376 106.27072L739.328 683.99104c-4.23936 42.25024-11.264 64.04096-21.8112 66.1504-12.65664 1.41312-41.51296 1.41312-85.15584 0 14.78656 20.41856 22.528 48.55808 25.33376 83.7632 79.52384 0 126.6688-7.04512 141.43488-21.83168 19.02592-16.1792 33.77152-83.02592 44.3392-199.86432l-185.77408 0 12.65664-34.5088L884.30592 577.69984z" p-id="1575"></path></svg>