<?xml version="1.0" standalone="no"?><!DOCTYPE svg PUBLIC "-//W3C//DTD SVG 1.1//EN" "http://www.w3.org/Graphics/SVG/1.1/DTD/svg11.dtd"><svg t="1542854962918" class="icon" style="" viewBox="0 0 1024 1024" version="1.1" xmlns="http://www.w3.org/2000/svg" p-id="3075" xmlns:xlink="http://www.w3.org/1999/xlink" width="200" height="200"><defs><style type="text/css"></style></defs><path d="M 958.72 582.528 c -38.784 -55.936 -91.136 -97.92 -151.936 -122.112 c 26.88 -18.816 49.408 -44.032 65.792 -73.472 c 18.944 -34.048 28.928 -72.832 28.928 -112.256 c 0 -123.136 -95.36 -223.232 -212.48 -223.232 c -16.64 0 -30.208 13.568 -30.208 30.208 c 0 16.64 13.568 30.208 30.208 30.208 c 83.84 0 152.064 73.088 152.064 162.816 c 0 89.856 -68.224 162.944 -152.064 162.944 c -16.64 0 -30.208 13.568 -30.208 30.208 l 0 0.128 c 0 16.64 13.568 30.208 30.208 30.208 c 150.784 0 273.536 130.816 273.536 291.584 c 0 16.64 13.568 30.208 30.208 30.208 c 16.64 0 30.208 -13.568 30.208 -30.208 C 1022.85 714.624 1000.7 643.072 958.72 582.528 L 958.72 582.528 Z M 646.784 531.2 c -31.616 -22.4 -66.176 -40.192 -102.528 -52.736 c 76.928 -46.72 124.16 -130.048 124.16 -220.544 C 668.416 115.712 552.704 0 410.496 0 C 268.16 0 152.448 115.712 152.448 258.048 c 0 48.384 13.568 95.616 39.168 136.576 c 21.76 34.688 51.2 63.616 86.016 84.48 c -37.12 12.672 -72.064 30.592 -104.192 53.376 c -35.072 24.832 -65.792 54.784 -91.648 89.088 C 28.288 692.992 0 777.856 0 867.2 c 0 16.64 13.568 30.208 30.208 30.208 c 16.64 0 30.208 -13.568 30.208 -30.208 c 0 -93.056 36.352 -180.864 102.272 -247.04 c 65.792 -66.048 152.832 -102.4 245.12 -102.528 c 3.072 0.256 6.144 0 9.216 -0.64 l 2.432 -0.512 c 89.856 1.792 174.208 38.016 238.464 102.528 c 65.92 66.176 102.144 153.856 102.144 247.04 c 0 16.64 13.568 30.208 30.208 30.208 c 16.64 0 30.208 -13.568 30.208 -30.208 c 0 -89.344 -28.288 -174.208 -81.92 -245.632 C 712.704 585.984 681.856 556.032 646.784 531.2 L 646.784 531.2 Z M 410.496 60.416 c 108.928 0 197.632 88.704 197.632 197.632 c 0 108.928 -88.704 197.632 -197.632 197.632 c -108.928 0 -197.632 -88.704 -197.632 -197.632 C 212.864 148.992 301.568 60.416 410.496 60.416 L 410.496 60.416 Z" p-id="3076"></path></svg>