<?xml version="1.0" standalone="no"?><!DOCTYPE svg PUBLIC "-//W3C//DTD SVG 1.1//EN" "http://www.w3.org/Graphics/SVG/1.1/DTD/svg11.dtd"><svg t="1552206446090" class="icon" style="" viewBox="0 0 1024 1024" version="1.1" xmlns="http://www.w3.org/2000/svg" p-id="2939" xmlns:xlink="http://www.w3.org/1999/xlink" width="200" height="200"><defs><style type="text/css"></style></defs><path d="M831.398957 788.813913c-47.037217 0-85.170087 38.13287-85.170087 85.170087 0 47.037217 38.13287 85.170087 85.170087 85.170087s85.170087-38.13287 85.170087-85.170087C916.569043 826.946783 878.436174 788.813913 831.398957 788.813913zM831.398957 916.569043c-23.529739 0-42.585043-19.055304-42.585043-42.585043s19.055304-42.585043 42.585043-42.585043 42.585043 19.055304 42.585043 42.585043S854.906435 916.569043 831.398957 916.569043zM384.24487 788.813913c-47.037217 0-85.170087 38.13287-85.170087 85.170087 0 47.037217 38.13287 85.170087 85.170087 85.170087 47.037217 0 85.170087-38.13287 85.170087-85.170087C469.414957 826.946783 431.282087 788.813913 384.24487 788.813913zM384.24487 916.569043c-23.529739 0-42.585043-19.055304-42.585043-42.585043s19.055304-42.585043 42.585043-42.585043 42.585043 19.055304 42.585043 42.585043S407.752348 916.569043 384.24487 916.569043zM953.165913 557.278609c0 0 48.573217-278.238609 48.573217-279.507478 0-47.037217-38.13287-85.170087-85.170087-85.170087L201.371826 192.601043 188.638609 125.68487C178.109217 90.579478 145.942261 64.845913 107.430957 64.845913l-63.888696 0C31.788522 64.845913 22.26087 74.373565 22.26087 86.127304c0 11.776 9.527652 21.303652 21.303652 21.303652l63.888696 0c20.413217 0 37.420522 14.380522 41.583304 33.52487l93.718261 531.545043c0.400696 3.027478 2.470957 11.820522 2.470957 11.820522 9.616696 33.636174 39.134609 59.169391 75.152696 61.885217l596.190609 0c11.753739 0 21.303652-9.527652 21.303652-21.281391 0-11.776-9.549913-21.303652-21.303652-21.303652L326.745043 703.621565c-19.366957 0-35.528348-13.022609-40.71513-30.72l-9.594435-54.450087 595.411478 0C910.491826 618.451478 942.770087 592.562087 953.165913 557.278609zM268.933565 575.866435 208.873739 235.186087l707.695304 0c23.529739 0 42.585043 19.055304 42.585043 42.585043 0 7.791304-46.83687 268.087652-46.83687 268.087652-5.409391 17.341217-21.348174 29.985391-40.470261 29.985391L268.933565 575.844174z" p-id="2940"></path></svg>