<?xml version="1.0" standalone="no"?><!DOCTYPE svg PUBLIC "-//W3C//DTD SVG 1.1//EN" "http://www.w3.org/Graphics/SVG/1.1/DTD/svg11.dtd"><svg t="1552222177776" class="icon" style="" viewBox="0 0 1024 1024" version="1.1" xmlns="http://www.w3.org/2000/svg" p-id="2299" xmlns:xlink="http://www.w3.org/1999/xlink" width="200" height="200"><defs><style type="text/css"></style></defs><path d="M512 510.7m-475.4 0a475.4 475.4 0 1 0 950.8 0 475.4 475.4 0 1 0-950.8 0Z" fill="#5FB29F" p-id="2300"></path><path d="M743.3 308.6c2.3 3.8 6.3 7.4 6.8 11.5 3.3 25.5 5.8 51.1 8.7 76.7 4.4 39.1 8.9 78.3 13.2 117.4 4.2 37.9 8.2 75.7 12.4 113.6 4.2 38.2 8.6 76.3 12.8 114.5 2.2 19.7 4.3 39.3 6.5 59.6-3.6 0.2-6.4 0.5-9.3 0.5-188.3 0-376.6 0-564.9-0.1-3.6 0-10.3 3-8.8-5.7 2.8-2.1 6-3.8 8.4-6.2 81.9-81.8 163.7-163.6 245.5-245.5 2.4-2.4 4.1-5.6 6.1-8.5 52.2 11.1 96-3.3 130.6-43.8 22.3-26.1 32.5-57.5 35.8-91.3 0.8-8.2-0.3-16.6-0.5-24.9 2.3-3.4 4.1-7.3 6.9-10.2 18-18.6 36.2-37 54.4-55.5l35.4-2.1z" fill="#E9C44E" p-id="2301"></path><path d="M480.7 536.3c-2 2.8-3.7 6.1-6.1 8.5-81.8 81.9-163.6 163.8-245.5 245.5-2.4 2.4-5.6 4.2-8.4 6.2 4.3-38.1 8.7-76.2 12.8-114.2 4.2-38.1 8-76.3 12.2-114.4 3.6-32.3 7.6-64.5 11.2-96.8 3.6-32.3 6.7-64.6 10.4-96.9 2.4-21.3 5.4-42.5 8.2-63.7h373.7l58.7 0.3c-18.1 18.5-36.4 36.9-54.4 55.5-2.8 2.9-4.7 6.8-6.9 10.2-10.6-4.7-15.2-2.2-16.6 8.9-0.3 1.9-0.4 3.9-0.7 5.8-2.6 2.4-5.4 4.7-7.9 7.2L508.6 511.2c-3 3-5.6 6.3-8.4 9.4-3.9-0.5-7.8-0.6-11.5-1.5-36.8-8.6-62.1-31.4-78.4-64.8-10.4-21.4-15.1-44.2-16.1-67.9-0.3-6.8-2.2-13.1-10.4-12.4-7.9 0.8-9.1 7.2-8.3 14 1.1 9.4 1.7 18.8 3.5 28.1 11.3 59 41.4 102.4 101.7 120.2z" fill="#EDD970" p-id="2302"></path><path d="M649.2 310.4H374.8c-0.1-18.3-0.1-36.6-0.2-55-20.8-12-41.6-24.1-62.4-36.1 26.4-0.2 52.8-0.6 79.3-0.6 103.8-0.1 207.6 0 311.5 0 2.9 0 5.8 0.3 8.8 0.5-20.8 12.1-41.5 24.2-62.3 36.3-0.2 18.3-0.3 36.6-0.3 54.9z" fill="#DFB243" p-id="2303"></path><path d="M374.5 255.4c0.1 18.3 0.1 36.6 0.2 55h-99.3c11.9-7.2 23.8-14.4 35.6-21.6 21.2-11.1 42.4-22.2 63.5-33.4z" fill="#DF924D" p-id="2304"></path><path d="M649.2 310.4c0.1-18.3 0.1-36.6 0.2-55 2.9 1.5 5.8 2.9 8.6 4.4 18.3 9.6 36.5 19.3 54.8 28.9 7.1 4.3 14.4 8.6 21.4 13 3.2 2 6.1 4.6 9.1 6.9l-35.4 2.1-58.7-0.3z" fill="#E0914C" p-id="2305"></path><path d="M712.7 288.7c-18.3-9.6-36.5-19.3-54.8-28.9-2.9-1.5-5.8-2.9-8.6-4.4 20.8-12.1 41.5-24.2 62.3-36.3 0.6 3.4 1.7 6.7 1.6 10.1 0 19.9-0.3 39.7-0.5 59.5zM374.5 255.4c-21.2 11.1-42.3 22.3-63.5 33.4-0.1-22.1-0.3-44.1-0.4-66.2 0-1.1 1-2.2 1.5-3.3 20.8 12.1 41.6 24.1 62.4 36.1z" fill="#ECE29C" p-id="2306"></path><path d="M480.7 536.3C420.5 518.4 390.3 475 378.9 416c-1.8-9.2-2.4-18.7-3.5-28.1-0.8-6.8 0.4-13.3 8.3-14 8.2-0.8 10.1 5.6 10.4 12.4 1 23.7 5.7 46.5 16.1 67.9 16.3 33.4 41.6 56.2 78.4 64.8 3.8 0.9 7.7 1 11.5 1.5 11.6-0.4 23.5 0.8 34.6-1.5 57.7-12.1 91.9-66.8 94.5-127.9 0.2-1.9 0.4-3.9 0.7-5.8 1.5-11.1 6.1-13.5 16.6-8.9 0.2 8.3 1.3 16.7 0.5 24.9-3.3 33.7-13.5 65.2-35.8 91.3-34.5 40.4-78.4 54.9-130.5 43.7z" fill="#43413F" p-id="2307"> </path><path d="M629.2 391c-2.6 61.1-36.8 115.8-94.5 127.9-11.2 2.3-23.1 1.1-34.6 1.5 2.8-3.1 5.5-6.4 8.4-9.4l112.8-112.8c2.5-2.5 5.3-4.8 7.9-7.2z" fill="#E6C14D" p-id="2308"></path></svg>