<?xml version="1.0" standalone="no"?><!DOCTYPE svg PUBLIC "-//W3C//DTD SVG 1.1//EN" "http://www.w3.org/Graphics/SVG/1.1/DTD/svg11.dtd"><svg t="1552221551172" class="icon" style="" viewBox="0 0 1024 1024" version="1.1" xmlns="http://www.w3.org/2000/svg" p-id="960" xmlns:xlink="http://www.w3.org/1999/xlink" width="200" height="200"><defs><style type="text/css"></style></defs><path d="M512.312695 511.860137m-511.500488 0a511.500488 511.500488 0 1 0 1023.000975 0 511.500488 511.500488 0 1 0-1023.000975 0Z" fill="#276058" p-id="961"></path><path d="M512.312695 0.359649c282.494127 0 511.500488 229.006361 511.500487 511.500488s-229.006361 511.500488-511.500487 511.500487V0.359649z" fill="#21574F" p-id="962"></path><path d="M384.965058 295.839095h67.518064v52.374852h-67.518064z" fill="#313131" p-id="963"></path><path d="M384.965058 310.803481h67.518064v14.964386h-67.518064z" fill="#484848" p-id="964"></path><path d="M362.459036 340.732254h112.530107v561.160991H362.459036z" fill="#F2EBCE" p-id="965"></path><path d="M595.020925 280.874708h22.506021V669.945756h-22.506021z" fill="#FFFFFF" p-id="966"></path><path d="M550.008882 625.053596l109.853721 2.432624 2.677385 274.000422-110.496093 0.405604z" fill="#F2EBCE" p-id="967"></path><path d="M581.657975 244.527204s-10.907348 35.829011 23.523028 36.337514c34.349456 0.507504 27.837815-17.702712 24.744835-63.864632-3.09298-46.162919-0.489522-87.411637-24.907676-85.718291-24.500074 1.778263-17.011387 38.115778-23.360187 113.245409z" fill="#A61A2A" p-id="968"></path><path d="M377.463383 767.213768h82.522412v82.303625h-82.522412z" fill="#313131" p-id="969"> </path></svg>