<?xml version="1.0" standalone="no"?><!DOCTYPE svg PUBLIC "-//W3C//DTD SVG 1.1//EN" "http://www.w3.org/Graphics/SVG/1.1/DTD/svg11.dtd"><svg t="1552221395294" class="icon" style="" viewBox="0 0 1024 1024" version="1.1" xmlns="http://www.w3.org/2000/svg" p-id="6669" xmlns:xlink="http://www.w3.org/1999/xlink" width="200" height="200"><defs><style type="text/css"></style></defs><path d="M508.051938 508.031008m-508.031008 0a508.031008 508.031008 0 1 0 1016.062016 0 508.031008 508.031008 0 1 0-1016.062016 0Z" fill="#BB404E" p-id="6670"></path><path d="M917.255039 703.702326c-0.099225-30.75969-25.203101-55.863566-55.962791-55.863566H422.520155c-30.660465 0-55.863566-25.103876-55.863566-55.863566 0-29.568992 23.417054-54.077519 52.688372-55.764341h286.95814c30.75969-0.099225 55.863566-25.203101 55.863566-55.863566s-25.103876-55.863566-55.863566-55.863566H6.371318c-4.167442 26.195349-6.350388 52.986047-6.350388 80.272868 0 10.517829 0.297674 21.035659 0.992248 31.454264h207.379845c29.172093 1.686822 52.688372 26.096124 52.688372 55.764341 0 30.660465-25.103876 55.863566-55.863566 55.863566H128.715504c-30.660465 0-55.863566 25.103876-55.863566 55.863566 0 30.660465 25.103876 55.863566 55.863566 55.863565h732.675969c30.660465 0 55.863566-25.103876 55.863566-55.863565z" fill="#D6AB8D" p-id="6671"></path><path d="M277.056589 905.327132c-13.196899 0-23.813953-10.716279-23.813953-23.813954V717.494574c0-13.196899 10.716279-23.813953 23.813953-23.813954h151.913178c13.196899 0 23.813953 10.716279 23.813954 23.813954v163.919379c0 13.196899-10.716279 23.813953-23.813954 23.813954H277.056589z" fill="#DBB663" p-id="6672"></path><path d="M428.969767 700.626357c9.327132 0 16.868217 7.541085 16.868217 16.868217v163.919379c0 9.327132-7.541085 16.868217-16.868217 16.868218H277.056589c-9.327132 0-16.868217-7.541085-16.868217-16.868218V717.494574c0-9.327132 7.541085-16.868217 16.868217-16.868217h151.913178m0-13.891473H277.056589c-16.967442 0-30.75969 13.792248-30.75969 30.75969v163.919379c0 16.967442 13.792248 30.75969 30.75969 30.75969h151.913178c16.967442 0 30.75969-13.792248 30.75969-30.75969V717.494574c0-16.967442-13.792248-30.75969-30.75969-30.75969z" fill="#3E1C0F" p-id="6673"></path><path d="M485.527907 916.63876c-18.951938 0-34.331783-15.379845-34.331783-34.331783V525.296124c0-18.951938 15.379845-34.331783 34.331783-34.331783h188.626357c18.951938 0 34.331783 15.379845 34.331783 34.331783v357.110078c0 18.951938-15.379845 34.331783-34.331783 34.331782H485.527907z" fill="#DBB663" p-id="6674"></path><path d="M674.055039 497.810853c15.181395 0 27.386047 12.303876 27.386046 27.386046v357.110078c0 15.181395-12.303876 27.386047-27.386046 27.386046h-188.527132c-15.181395 0-27.386047-12.303876-27.386047-27.386046V525.296124c0-15.181395 12.303876-27.386047 27.386047-27.386046h188.527132m0-13.990698h-188.527132c-22.821705 0-41.277519 18.555039-41.277519 41.277519v357.110078c0 22.821705 18.555039 41.277519 41.277519 41.277519h188.626357c22.821705 0 41.277519-18.555039 41.277519-41.277519V525.296124c0-22.821705-18.555039-41.376744-41.376744-41.376744z" fill="#3E1C0F" p-id="6675"></path><path d="M517.974419 314.046512V153.897674c-0.496124-3.373643-0.694574-6.846512-0.694574-10.220155 0-36.812403 26.096124-66.778295 58.145736-66.778294s58.145736 29.965891 58.145737 66.778294c0 3.373643-0.19845 6.846512-0.694574 10.220155v160.148838H517.974419z" fill="#731D27" p-id="6676"></path><path d="M575.425581 83.844961c28.27907 0 51.2 26.790698 51.2 59.832558 0 3.274419-0.19845 6.548837-0.694573 9.724031v153.699225H524.920155V153.500775c-0.396899-3.175194-0.694574-6.449612-0.694574-9.724031 0-33.141085 22.92093-59.931783 51.2-59.931783m0-13.891473c-17.76124 0-34.431008 7.937984-46.734883 22.424807-11.807752 13.792248-18.356589 32.049612-18.356589 51.398449 0 3.572093 0.19845 7.144186 0.694573 10.716279v166.59845h128.793799v-166.697675c0.496124-3.572093 0.694574-7.144186 0.694573-10.716279 0-19.249612-6.548837-37.506977-18.356589-51.398449-12.403101-14.387597-28.973643-22.325581-46.734884-22.325582zM662.644186 883.100775H499.22093c-10.914729 0-19.745736-8.831008-19.745736-19.745736V544.248062c0-10.914729 8.831008-19.745736 19.745736-19.745736h163.522481c10.914729 0 19.745736 8.831008 19.745736 19.745736V863.255814c0 11.013953-8.831008 19.844961-19.844961 19.844961z" fill="#3E1C0F" p-id="6677"></path><path d="M524.324806 469.531783c-13.196899 0-23.813953-10.716279-23.813953-23.813954V324.068217c0-13.196899 10.716279-23.813953 23.813953-23.813953h102.201551c13.196899 0 23.813953 10.716279 23.813953 23.813953v121.649612c0 13.196899-10.716279 23.813953-23.813953 23.813954h-102.201551z" fill="#DBB663" p-id="6678"></path><path d="M626.526357 307.100775c9.327132 0 16.868217 7.541085 16.868217 16.868217v121.649613c0 9.327132-7.541085 16.868217-16.868217 16.868217h-102.201551c-9.327132 0-16.868217-7.541085-16.868217-16.868217V324.068217c0-9.327132 7.541085-16.868217 16.868217-16.868217h102.201551m0-13.990698h-102.201551c-16.967442 0-30.75969 13.792248-30.75969 30.75969v121.649613c0 16.967442 13.792248 30.75969 30.75969 30.75969h102.201551c16.967442 0 30.75969-13.792248 30.75969-30.75969V324.068217c0-17.066667-13.792248-30.858915-30.75969-30.858915z" fill="#3E1C0F" p-id="6679"></path><path d="M493.267442 497.215504c-12.700775 0-23.11938-10.418605-23.11938-23.11938s10.418605-23.11938 23.11938-23.11938h172.948837c12.700775 0 23.11938 10.418605 23.11938 23.11938s-10.418605 23.11938-23.11938 23.11938H493.267442z" fill="#DBB663" p-id="6680"></path><path d="M666.315504 457.922481c8.930233 0 16.173643 7.243411 16.173643 16.173643s-7.243411 16.173643-16.173643 16.173643H493.267442c-8.930233 0-16.173643-7.243411-16.173644-16.173643s7.243411-16.173643 16.173644-16.173643h173.048062m0-13.891473H493.267442c-16.570543 0-30.065116 13.494574-30.065116 30.065116 0 16.570543 13.494574 30.065116 30.065116 30.065116h172.948837c16.570543 0 30.065116-13.494574 30.065116-30.065116 0.099225-16.570543-13.395349-30.065116-29.965891-30.065116z" fill="#3E1C0F" p-id="6681"></path><path d="M524.225581 143.677519a59.832558 51.2 90 1 0 102.4 0 59.832558 51.2 90 1 0-102.4 0Z" fill="#BB525C" p-id="6682"></path></svg>