<?xml version="1.0" standalone="no"?><!DOCTYPE svg PUBLIC "-//W3C//DTD SVG 1.1//EN" "http://www.w3.org/Graphics/SVG/1.1/DTD/svg11.dtd"><svg t="1552202824309" class="icon" style="" viewBox="0 0 1131 1024" version="1.1" xmlns="http://www.w3.org/2000/svg" p-id="7273" xmlns:xlink="http://www.w3.org/1999/xlink" width="220.8984375" height="200"><defs><style type="text/css"></style></defs><path d="M1130.10105 436.659501l1.853743 1.467547q-0.913998-0.772393-1.853743-1.467547zM0 438.770708l3.347036-2.651882a32.183041 32.183041 0 0 0-3.347036 2.651882z" p-id="7274"></path><path d="M117.725564 995.678924c-0.296084 1.982475-0.605041 3.952077-0.875379 5.947426a29.685637 29.685637 0 0 0 0.875379-5.947426zM88.0528 1024zM58.418656 992.087296q0.32183-2.227066 0.669407-4.454132a29.608398 29.608398 0 0 0-0.669407 4.454132z" p-id="7275"></path><path d="M1074.334276 985.174379c0.373323 2.330052 0.708027 4.672978 1.042731 7.015903a30.715494 30.715494 0 0 0-1.042731-7.015903zM1014.769904 1000.480634c-0.257464-1.84087-0.527802-3.668867-0.811013-5.496864a30.715494 30.715494 0 0 0 0.811013 5.496864z" p-id="7276"></path><path d="M1074.334276 985.174379C1043.515796 791.239374 897.095833 650.226161 710.253969 593.918713c99.612949-53.114891 184.26722-166.21897 184.26722-286.712276C894.521189 133.057565 741.535885 0 566.897831 0s-327.623358 133.057565-327.623357 307.206437c0 120.493306 84.705764 233.636005 184.318712 286.712276C235.914564 650.445006 89.056911 792.436583 59.049444 987.633164q-0.347577 2.227066-0.669408 4.454132c0 0.7209-0.090113 1.454673-0.090112 2.188447a29.711383 29.711383 0 0 0 29.608398 29.711384h0.180225a29.724257 29.724257 0 0 0 28.771638-22.322157c0.270338-1.995349 0.579295-3.964951 0.875379-5.947426 32.852448-216.270036 221.277717-360.81051 449.172267-360.81051 227.637086 0 414.067006 144.257263 447.06106 360.102483 0.283211 1.827997 0.553548 3.668867 0.811013 5.496863a30.754114 30.754114 0 0 0 60.632849-7.234748c0.012873-0.386196-0.656534-5.767201-1.068477-8.097253z m-773.680307-677.980816c0-141.489522 124.342397-245.749701 266.243862-245.749701s266.243862 104.273053 266.243862 245.749701-124.355271 266.243862-266.243862 266.243862-266.243862-124.741467-266.243862-266.230988z" p-id="7277"></path></svg>