<?xml version="1.0" standalone="no"?><!DOCTYPE svg PUBLIC "-//W3C//DTD SVG 1.1//EN" "http://www.w3.org/Graphics/SVG/1.1/DTD/svg11.dtd"><svg class="icon" width="200px" height="200.00px" viewBox="0 0 1024 1024" version="1.1" xmlns="http://www.w3.org/2000/svg"><path d="M937.944615 972.603077c-45.292308-59.273846-45.292308-121.304615-0.393846-195.150769 2.363077-3.741538 3.544615-7.876923 3.938462-11.815385 0.393846-1.378462 0.393846-2.953846 0.393846-4.332308V33.28c0-14.966154-12.209231-27.175385-27.175385-27.175385H248.516923c-92.356923 0-167.581538 75.027692-167.581538 167.581539v676.824615c0 1.772308 0.196923 3.741538 0.590769 5.513846-0.984615 6.695385-1.575385 13.193846-1.575385 20.283077 0 77.193846 62.818462 140.012308 140.012308 140.012308h696.32c10.436923 0 19.889231-5.710769 24.221538-15.163077 4.529231-9.058462 3.938462-20.283077-2.56-28.553846zM762.486154 62.424615v149.858462L695.138462 171.716923c-8.467692-5.12-19.298462-5.12-27.963077 0l-71.68 42.732308V62.227692l166.990769 0.196923z m-513.969231-1.96923h292.824615v202.043077c0 9.846154 5.316923 18.904615 13.784616 23.630769 4.332308 2.363077 8.861538 3.544615 13.390769 3.544615 4.923077 0 9.649231-1.378462 13.981539-3.938461l98.658461-59.273847 94.523077 57.107693c8.467692 5.12 18.904615 5.12 27.569231 0.393846 8.467692-4.726154 13.981538-13.981538 13.981538-23.630769V60.455385h70.892308v675.643077H220.16c-31.704615 0-61.243077 10.633846-84.676923 28.750769V173.883077c-0.196923-62.621538 50.609231-113.427692 113.033846-113.427692z m619.52 901.710769h-647.876923c-47.261538 0-85.858462-38.4-85.858462-85.858462 0-47.261538 38.4-85.858462 85.858462-85.858461h649.846154c-12.996923 30.326154-19.889231 59.864615-20.086154 88.221538-0.393846 28.750769 5.710769 56.713846 18.116923 83.495385z"  /></svg>