<?xml version="1.0" standalone="no"?><!DOCTYPE svg PUBLIC "-//W3C//DTD SVG 1.1//EN" "http://www.w3.org/Graphics/SVG/1.1/DTD/svg11.dtd"><svg class="icon" width="200px" height="200.00px" viewBox="0 0 1024 1024" version="1.1" xmlns="http://www.w3.org/2000/svg"><path d="M662.4 184 662.4 91.456c0-18.304 14.784-33.088 33.152-33.088s33.152 14.784 33.152 33.088l0 92.48c0 18.432-14.848 33.216-33.152 33.216S662.336 202.304 662.4 184zM638.464 91.776 572.224 91.776l0 76.16 66.24 0L638.464 91.776zM515.136 217.152c18.304 0 33.152-14.784 33.152-33.216L548.288 91.456c0-18.304-14.784-33.088-33.152-33.088S482.048 73.152 482.048 91.456l0 92.48C481.984 202.304 496.896 217.152 515.136 217.152zM334.784 217.152c18.304 0 33.152-14.784 33.152-33.216L367.936 91.456c0-18.304-14.784-33.088-33.152-33.088S301.632 73.152 301.632 91.456l0 92.48C301.568 202.304 316.416 217.152 334.784 217.152zM891.52 91.776l-138.88 0 0 76.16 136.832 0 0 721.28L323.712 889.216l0-144.768L134.592 744.448 134.592 168 277.76 168l0-76.16L132.544 91.84c-40.96 0-74.176 33.216-74.176 74.176 0 0 0 589.504 0 589.824 0 16.768 7.744 31.808 19.84 41.6l193.792 156.8c10.304 8.064 22.912 11.84 35.328 11.328l584.064 0c40.96 0 74.176-33.216 74.176-74.176L965.568 165.952C965.568 124.992 932.352 91.776 891.52 91.776zM458.112 91.776 391.872 91.776l0 76.16 66.24 0L458.112 91.776zM541.184 624.576l-15.36 15.36 161.28 161.28c0.64 0.64 1.408 1.088 2.24 1.28l124.032 33.216c1.728 0.448 3.584 0 4.864-1.28s1.792-3.136 1.28-4.864l-33.216-124.032c-0.256-0.832-0.704-1.664-1.28-2.24l-161.28-161.28L579.072 586.688l161.28 161.28-37.888 37.888L541.184 624.576zM511.552 299.008C480.512 267.968 439.296 251.52 397.248 251.52c-20.864 0-41.92 4.032-62.016 12.352C333.056 264.768 331.52 266.624 331.072 268.928c-0.448 2.176 0.32 4.608 1.92 6.208l100.096 100.096L417.344 433.6 358.912 449.216 258.944 349.248C257.6 347.904 255.808 347.2 253.952 347.2c-0.384 0-0.832 0.064-1.28 0.128C250.432 347.776 248.512 349.312 247.68 351.424 222.528 412.16 236.352 481.344 282.752 527.744c31.552 31.552 72.96 47.296 114.368 47.296 18.432 0 36.864-3.136 54.464-9.344l62.144 62.144 97.92-97.92L549.568 467.776C569.792 410.816 557.248 344.576 511.552 299.008z" /></svg>