<?xml version="1.0" standalone="no"?><!DOCTYPE svg PUBLIC "-//W3C//DTD SVG 1.1//EN" "http://www.w3.org/Graphics/SVG/1.1/DTD/svg11.dtd"><svg class="icon" width="200px" height="200.00px" viewBox="0 0 1024 1024" version="1.1" xmlns="http://www.w3.org/2000/svg"><path d="M511.8194 962.59612c-20.22716 0-36.842328-16.615168-36.842328-36.842328l0-299.795414c-49.123104-15.892769-82.714638-61.40388-82.714638-113.416578 0-52.012698 33.591534-97.52381 82.714638-113.416578L474.977072 97.885009c0-20.22716 16.615168-36.842328 36.842328-36.842328s36.842328 16.615168 36.842328 36.842328l0 301.240212c49.123104 15.892769 82.714638 61.40388 82.714638 113.416578 0 52.012698-33.591534 97.52381-82.714638 113.416578l0 299.795414C548.661728 945.980952 532.046561 962.59612 511.8194 962.59612zM511.8194 466.669489c-6.862787 0-14.086772 2.167196-22.033157 6.501587-15.17037 8.307584-24.200353 23.116755-24.200353 39.731922 0 16.253968 9.029982 31.063139 24.200353 39.731922 7.946384 4.334392 14.809171 6.501587 22.033157 6.501587 6.862787 0 14.086772-2.167196 22.033157-6.501587 15.17037-8.307584 24.200353-23.116755 24.200353-39.731922 0-16.253968-9.029982-31.063139-24.200353-39.731922C525.906173 468.836684 519.043386 466.669489 511.8194 466.669489zM853.152734 962.59612c-20.22716 0-36.842328-16.615168-36.842328-36.842328L816.310406 440.663139c-49.123104-15.892769-82.714638-61.40388-82.714638-113.416578 0-52.012698 33.591534-97.52381 82.714638-113.416578l0-115.583774c0-20.22716 16.615168-36.842328 36.842328-36.842328 20.22716 0 36.842328 16.615168 36.842328 36.842328l0 115.583774c49.123104 15.892769 82.714638 61.40388 82.714638 113.416578 0 52.012698-33.591534 97.52381-82.714638 113.416578l0 485.090653C889.633862 945.980952 873.379894 962.59612 853.152734 962.59612zM853.152734 281.013051c-6.862787 0-14.086772 2.167196-22.033157 6.501587-15.17037 8.307584-24.200353 23.116755-24.200353 39.731922 0 16.253968 9.029982 31.063139 24.200353 39.731922 7.946384 4.334392 14.809171 6.501587 22.033157 6.501587s14.086772-2.167196 22.033157-6.501587c15.17037-8.307584 24.200353-23.116755 24.200353-39.731922 0-16.253968-9.029982-31.063139-24.200353-39.731922C866.878307 283.180247 860.01552 281.013051 853.152734 281.013051zM170.847266 962.59612c-20.22716 0-36.842328-16.615168-36.842328-36.842328l0-114.138977c-49.123104-15.892769-82.714638-61.40388-82.714638-113.416578 0-52.012698 33.591534-97.52381 82.714638-113.416578L134.004938 97.885009c0-20.22716 16.615168-36.842328 36.842328-36.842328s36.842328 16.615168 36.842328 36.842328l0 486.896649c49.123104 15.892769 82.714638 61.40388 82.714638 113.416578 0 52.012698-33.591534 97.52381-82.714638 113.416578l0 114.138977C207.689594 945.980952 191.074427 962.59612 170.847266 962.59612zM170.847266 652.325926c-6.862787 0-14.086772 2.167196-22.033157 6.501587-15.17037 8.307584-24.200353 23.116755-24.200353 39.731922 0 16.253968 9.029982 31.063139 24.200353 39.731922 7.946384 4.334392 14.809171 6.501587 22.033157 6.501587 6.862787 0 14.086772-2.167196 22.033157-6.501587 15.17037-8.307584 24.200353-23.116755 24.200353-39.731922 0-16.253968-9.029982-31.063139-24.200353-39.731922C184.934039 654.493122 177.710053 652.325926 170.847266 652.325926z" /></svg>