<?xml version="1.0" standalone="no"?><!DOCTYPE svg PUBLIC "-//W3C//DTD SVG 1.1//EN" "http://www.w3.org/Graphics/SVG/1.1/DTD/svg11.dtd"><svg class="icon" width="200px" height="200.00px" viewBox="0 0 1024 1024" version="1.1" xmlns="http://www.w3.org/2000/svg"><path d="M487.670597 311.634497c0-17.598012-14.239219-31.837231-31.837231-31.837231L151.451475 279.797266c-17.598012 0-31.837231 14.239219-31.837231 31.837231 0 17.598012 14.239219 31.837231 31.837231 31.837231L455.833366 343.471728C473.430366 343.471728 487.670597 329.231497 487.670597 311.634497z"  /><path fill="#ffffff" d="M305.725357 501.040686c0-17.598012-14.239219-31.837231-31.837231-31.837231L151.451475 469.203455c-17.598012 0-31.837231 14.239219-31.837231 31.837231s14.239219 31.837231 31.837231 31.837231l122.436651 0C291.486138 532.877917 305.725357 518.638698 305.725357 501.040686z"  /><path fill="#ffffff" d="M151.451475 658.610656c-17.598012 0-31.837231 14.239219-31.837231 31.837231s14.239219 31.837231 31.837231 31.837231l86.930134 0c17.598012 0 31.837231-14.239219 31.837231-31.837231s-14.239219-31.837231-31.837231-31.837231L151.451475 658.610656z"  /><path fill="#ffffff" d="M413.486885 955.716679 135.843859 955.716679c-32.023325 0-58.078497-30.15834-58.078497-67.281043L77.765362 147.536069c0-37.122703 26.05416-67.342737 58.078497-67.342737l584.324795 0c31.961631 0 58.015791 30.220034 58.015791 67.342737l0 85.997641c0 17.598012 14.24023 31.837231 31.837231 31.837231 17.598012 0 31.837231-14.239219 31.837231-31.837231l0-85.997641c0-72.256021-54.596315-131.017199-121.690253-131.017199l-584.324795 0C68.687215 16.517858 14.0909 75.280048 14.0909 147.536069l0 740.899567c0 72.193316 54.596315 130.955505 121.752959 130.955505L413.486885 1019.391141c17.598012 0 31.837231-14.239219 31.837231-31.837231S431.084897 955.716679 413.486885 955.716679z"  /><path fill="#ffffff" d="M965.1029749333333 677.7444149333334c-3.0508618666666667-1.3927381333333333-4.1124064-3.847019733333333-4.443598933333333-5.5709504-0.3311936-1.7250101333333332-0.2653856-4.3109056 2.188896-6.897881600000001 2.5200896-2.7196682666666665 5.5051434666666665-4.775870933333334 9.683356799999999-6.566688 30.44388693333333-13.597262933333333 46.76081706666666-39.9956288 43.643069866666664-70.70490133333332-3.1835541333333333-31.5723168-12.602603733333332-57.837990399999995-28.852648533333333-80.18975786666667-21.423994666666665-29.516114133333332-54.123664-39.133663999999996-87.35302506666667-25.271015466666665-4.7089856 1.9235103999999998-9.0867776 2.8523616-13.795762133333334 2.8523616-2.4542826666666664 0-6.2344159999999995-2.4542826666666664-6.433994666666666-4.7089856-0.2653856-3.2504405333333333 0.19850026666666667-6.3671093333333335 1.6581237333333334-10.479514666666667 3.2504405333333333-9.219469866666666 8.0921184-23.082118400000002 4.7089856-40.26101546666666-5.439336533333333-26.33255893333333-24.010970666666665-41.38836693333334-32.69966826666666-48.4858272-24.47485653333333-20.163950933333336-53.1279264-26.199866666666665-72.4957184-28.985341866666666-24.54066346666667-4.04552-47.8223616 5.372450133333333-62.94505493333333 24.806050133333333-5.770530133333334 7.3628469333333335-10.9272192 14.911246933333333-14.3265344 22.684039466666665-0.9493482666666666 2.1640832-6.5742400000000005 9.0619648-14.128034133333333 4.576292266666667-3.0260490666666664-1.7951317333333332-4.841677866666667-6.101722666666666-7.8267328-12.4699104-13.862648533333333-28.918455466666668-39.3321632-43.37876266666666-70.24101546666667-39.86293546666666-33.959713066666666 3.9797130666666667-60.9546592 14.3265344-82.37865386666667 31.5723168-24.010970666666665 19.300906666666666-33.05243733333333 45.4382016-26.132980266666667 73.88845653333333 0.7540853333333333 3.1091168000000002 1.2978026666666667 5.869780266666667 2.2547029333333333 9.161214933333333 0 0 1.0615445333333333 3.9257728 1.1651093333333333 6.2592288 0.08738346666666666 1.91488 0.5221418666666666 3.9344031999999998-0.5307722666666667 5.9442176-1.1651093333333333 2.2266538666666666-3.478068266666667 4.780186666666666-8.924956799999999 4.5687402666666665-4.04552-0.2653856-9.286356266666667-1.3927381333333333-19.50048533333333-4.3109056-15.255386666666666-4.245098666666666-44.63880746666667-6.964766933333333-70.83759466666667 22.88253973333333-18.306247466666665 20.9590304-25.801786666666665 44.904193066666664-30.643465600000003 65.53202986666666-8.4901984 35.750530133333335 5.5051434666666665 79.85856533333333 47.622782933333326 94.51629333333334 0.5965792000000001 0.3311936 6.371424 0.3279573333333333 7.1632672 6.964766933333333 0.4023946666666667 3.386370133333333-4.5104853333333335 7.561346133333333-13.000682666666668 11.142980266666665-30.178500266666667 12.668410666666666-46.097351466666666 39.663356799999995-43.709955199999996 74.0211488 2.0562026666666666 29.1180352 12.2045248 55.78178773333333 30.112693333333333 79.32779306666666 18.373133866666667 24.14366293333333 46.03154453333333 34.357792 76.07735253333334 27.459911466666664 8.954084266666666-2.0562026666666666 16.8477024-3.6485194666666665 21.68938133333333-4.04552 0.13269333333333333 2.7854752-1.5923167999999999 7.428653866666666-3.383133866666667 12.137638399999998-3.4489408000000004 8.755584-7.694039466666666 22.28596053333333-5.0412576 38.60289173333333 2.9181685333333336 18.1077472 12.071831466666666 33.296247466666664 28.18918293333333 46.495431466666666 20.495143466666665 16.780817066666668 45.831965866666664 27.791104 77.4700896 33.694327466666664 37.27596053333333 6.964766933333333 71.83225279999999-11.142980266666665 85.23101546666666-45.301193600000005 0.6634656-1.7908170666666665 3.4284437333333333-12.656544 10.711458133333334-12.141954133333334 5.874094933333334 0.418576 6.4544928 5.115694933333333 10.181764266666667 13.401998933333333 12.9542944 28.807338666666666 37.67403946666666 45.5665792 65.73053013333333 45.5665792 3.1177471999999997 0 6.3013024-0.19850026666666667 9.550663466666666-0.5965792000000001 26.596867200000002-3.5158261333333334 51.204416-12.8679904 73.22606933333333-27.791104 30.9746592-21.091722666666666 42.25033173333334-59.0980352 27.327218133333332-92.39428266666667-0.6634656-1.4596234666666668-2.4499669333333336-8.054360533333334-0.9288512-10.6790944 2.831864533333333-4.886987733333333 13.0211808-0.11219626666666667 24.4090496 2.7196682666666665 29.2377824 7.271147733333334 57.439911466666665-1.5923167999999999 78.92971306666666-25.734901333333333 20.760530133333333-23.546005333333333 27.525718400000002-51.071723733333336 30.841965866666666-69.77712853333334 4.974371199999999-28.254990933333332-4.443598933333333-48.22044053333333-13.133376-59.96C990.4397973333333 690.8109056 976.2459551999999 682.9841727999999 965.1029749333333 677.7444149333334zM947.4601930666666 753.5563808c-3.0508618666666667 17.046202666666666-7.627154133333334 28.321876266666667-14.857306666666666 36.479802666666664-5.6378368000000005 6.433994666666666-8.157926400000001 5.836337066666667-11.341480533333334 4.974371199999999-15.984658133333333-4.04552-33.561634133333335-7.2301535999999995-53.1279264-3.7801344-29.3834208 5.239757866666666-53.92408426666667 32.63278293333333-55.847594666666666 62.083089066666666-1.1273514666666666 16.382738133333334 1.0615445333333333 30.510772266666667 6.832074666666667 43.24606933333334 1.9235103999999998 4.3109056-2.2547029333333333 7.561346133333333-3.5158261333333334 8.423312000000001-13.331876266666665 9.020970666666667-27.725297066666666 14.459227733333334-44.63880746666667 16.780817066666668-0.46388586666666665-0.2653856-2.1220096-1.9235103999999998-3.7812128-5.5709504-9.417970133333334-21.091722666666666-23.678698666666666-36.081722666666664-42.64841173333333-44.63880746666667-25.271015466666665-11.275673600000001-51.66938133333333-8.025233066666667-74.48611413333333 9.020970666666667-13.3976832 10.081435733333333-23.1479264 22.618232533333334-28.985341866666666 37.342846933333334-0.5965792000000001 1.5923167999999999-1.4596234666666668 4.576292266666667-9.551742933333333 3.383133866666667-20.3624512-3.847019733333333-35.2866432-10.0156288-46.8935104-19.50048533333333l-4.8373631999999995-4.323851733333333 2.051888-3.768266666666667c4.245098666666666-11.010286933333333 8.622890666666667-24.010970666666665 7.8267328-39.86293546666666-1.4596234666666668-32.168896-25.602208-58.633069866666666-57.307218133333336-62.87816853333334-4.377792-0.5307722666666667-8.556005333333333-0.7961578666666667-12.668410666666666-0.7961578666666667-12.4699104 0-23.811390933333332 2.3215893333333333-34.49048533333333 4.7089856-4.178213333333334 1.0615445333333333-4.775870933333334 0.5965792000000001-7.030573866666667-2.3215893333333333-9.750242133333334-12.8679904-15.321193599999999-27.327218133333332-16.382738133333334-42.98068373333333 0 0-0.20281493333333334-3.4154976 0.22762773333333333-4.439284266666666 0.29019839999999997-0.6882773333333333 1.3927381333333333-1.7994474666666667 2.0270752-2.1932117333333334 19.802550399999998-12.337218133333332 37.939426133333335-24.209470933333332 47.556976-43.7757632 12.270331733333334-24.938742400000002 9.286356266666667-52.13326826666666-8.157926400000001-72.8279904-8.4901984-9.948742399999999-20.296643200000002-22.153267200000002-36.479802666666664-27.791104-7.561346133333333-2.6527818666666665-4.974371199999999-15.0568864-4.974371199999999-15.255386666666666 4.245098666666666-17.975054933333336 8.821390933333333-28.520376533333334 20.8932224-37.4755392 10.413707733333332 2.9181685333333336 23.21481173333333 6.699381333333333 38.403312 5.5709504 39.3990496-2.4542826666666664 67.58823253333333-29.516114133333332 70.10832213333333-66.2613024l1.1273514666666666-11.209866666666667-0.7292725333333333-13.4645696c-0.6634656-6.566688-1.4596234666666668-13.066490666666665-0.13269333333333333-23.745584 11.341480533333334-9.153662933333333 26.464173866666666-14.591921066666666 48.61851946666666-15.5865792 4.377792 9.3521632 10.877594666666665 21.556688 22.2201536 32.43428266666666 17.112010666666666 16.382738133333334 40.724901333333335 23.1479264 64.6689856 19.03552 25.07143573333333-4.443598933333333 46.5623168-20.495143466666665 57.57260373333333-42.913797333333335 1.6581237333333334-3.4489408000000004 3.9139061333333336-7.030573866666667 6.3671093333333335-10.0156288 18.571634133333333 2.6527818666666665 30.245386666666665 6.897881600000001 39.26635626666667 14.3265344 2.1220096 1.7908170666666665 8.688698666666665 7.030573866666667 9.020970666666667 7.2301535999999995l-2.0562026666666666 6.566688c-4.643178666666667 13.000682666666668-6.3671093333333335 25.6690944-5.239757866666666 38.934084266666666 3.316247466666667 36.01591573333334 34.158213333333336 65.26664426666667 70.17412906666667 66.526688 14.857306666666666-0.13269333333333333 29.44922773333333-2.1220096 43.57726293333334-7.959426133333333l3.3324298666666667-1.666754133333333 3.1673728000000003 4.0541504c9.020970666666667 12.403025066666666 14.3265344 27.857990400000002 12.801104 48.88390613333333-12.337218133333332 5.372450133333333-23.082118400000002 12.8679904-31.770817066666666 22.153267200000002-16.715010133333333 17.642782933333333-23.944084266666668 42.38302506666666-19.433598933333332 66.12860906666667 4.5104853333333335 23.811390933333332 20.3624512 44.1080352 42.44991146666667 54.454856533333334 3.581634133333333 1.6581237333333334 8.4901984 4.178213333333334 10.214129066666667 6.433994666666666C947.3274997333334 746.7253856000001 948.3890442666667 748.1839306666666 947.4601930666666 753.5563808z"  /><path fill="#ffffff" d="M693.4252703999999 510.5328245333333c-89.60880746666666 1.1942378666666666-159.58443626666667 71.2356736-159.31905066666667 159.3848576 0.13269333333333333 42.98068373333333 17.046202666666666 83.30750506666666 47.7554752 113.55289173333334 30.0468864 29.714614400000002 69.64443626666666 45.9646592 111.49668906666668 45.9646592 0.5965792000000001 0 1.1273514666666666 0 1.7250101333333332 0 89.0111488-0.8619658666666666 160.84448106666665-72.69529706666667 160.11520853333334-160.18101546666668-0.3311936-42.8479904-17.377396266666665-83.04211946666666-48.02086186666667-113.02211946666667C776.6000832 526.2520970666667 736.0078741333333 510.06785920000004 693.4252703999999 510.5328245333333zM694.4199285333333 761.5158069333334c-25.336822400000003 2.188896-47.42428266666666-9.0867776-64.86856426666667-26.39836693333333-17.709668266666664-17.444282666666666-27.459911466666664-40.6590944-27.525718400000002-65.3324512-0.13269333333333333-50.54202986666667 40.393707733333336-90.6692736 92.26158933333333-91.33273813333334 0.39807893333333333 0 0.7961578666666667 0 1.1942378666666666 0 24.0767776 0 46.82770346666667 9.286356266666667 64.13821333333334 26.2656736 17.642782933333333 17.31158933333333 27.459911466666664 40.393707733333336 27.65841066666667 65.06706453333334C787.7430634666667 719.8620544 746.0893098666666 761.0519210666666 694.4199285333333 761.5158069333334z"  /></svg>