<?xml version="1.0" standalone="no"?><!DOCTYPE svg PUBLIC "-//W3C//DTD SVG 1.1//EN" "http://www.w3.org/Graphics/SVG/1.1/DTD/svg11.dtd"><svg class="icon" width="200px" height="200.00px" viewBox="0 0 1024 1024" version="1.1" xmlns="http://www.w3.org/2000/svg"><path d="M72.39958203 401.82115265v-157.11694947c0-74.81110495 60.63924009-135.45034502 135.45034508-135.45034505 9.6750262 0 17.57856567-7.90354311 17.57856566-17.57856568v-12.12784732c0-42.65187092 33.65818636-77.2639297 75.08364304-77.26392967 41.42545671 0 75.08364306 34.61205876 75.08364307 77.26392967v12.12784732c0 9.6750262 7.90354311 17.57856567 17.57856566 17.57856568h33.52191726c9.6750262 0 17.57856567-7.90354311 17.57856566-17.57856568v-12.12784732c0-42.65187092 33.65818636-77.2639297 75.08364306-77.26392967 41.42545671 0 75.08364306 34.61205876 75.08364308 77.26392967v12.12784732c0 9.6750262 7.90354311 17.57856567 17.57856564 17.57856568h33.52191366c9.6750262 0 17.57856567-7.90354311 17.57856929-17.57856568v-12.12784732c0-42.65187092 33.65818636-77.2639297 75.08363945-77.26392967 41.42545671 0 75.08364306 34.61205876 75.08364302 77.26392967v12.12784732c0 9.6750262 7.90354311 17.57856567 17.57856571 17.57856568h9.40248806c64.99981331 0 117.87177939 52.87196607 117.87178302 117.87177932v174.83178428c0 9.6750262-7.90354311 17.57856567-17.57856932 17.57856561H90.11441677c-9.81129164-0.13626908-17.71483472-8.0398085-17.71483474-17.71483469z m666.07775769-353.47906911c-15.94335162 0-29.02507499 14.03559942-29.02507495 31.20536159v132.72498581c0 17.16976219 12.94545436 31.20536157 29.02507495 31.20536165 15.94335162 0 29.02507499-14.03559942 29.02507133-31.20536165V79.54744513c0-17.30603116-13.08172343-31.20536157-29.02507133-31.20536159z m-218.84633472 0c-15.94335162 0-29.02507499 14.03559942-29.02507503 31.20536159v132.72498581c0 17.16976219 12.94545436 31.20536157 29.02507503 31.20536165 15.94335162 0 29.02507499-14.03559942 29.02507499-31.20536165V79.54744513c-0.13626908-17.30603116-13.08172343-31.20536157-29.02507499-31.20536159z m-218.98260014 0c-15.94335162 0-29.02507499 14.03559942-29.02507497 31.20536159v132.72498581c0 17.16976219 12.94545436 31.20536157 29.02507497 31.20536165 15.94335162 0 29.02507499-14.03559942 29.025075-31.20536165V79.54744513c0-17.30603116-13.08172343-31.20536157-29.025075-31.20536159zM211.93796592 995.26809198c-76.9913952 0-139.40211481-62.4107232-139.40211486-139.4021184v-368.74108278c0-11.85531286 9.6750262-21.53033542 21.53033545-21.5303354h842.95355945c11.85531286 0 21.53033542 9.6750262 21.53033902 21.5303354v368.74108278c0 76.9913952-62.4107232 139.40211481-139.4021184 139.4021184H211.93796592z m-79.85301982-139.53838383c0 44.15081596 35.70220393 79.85301979 79.85301982 79.85301982h607.07373163c44.0145505 0 79.85301979-35.70220393 79.85302344-79.85301982v-309.05571872c0-11.85531286-9.6750262-21.53033542-21.53033905-21.53033902H153.61528148c-11.85531286 0-21.53033542 9.6750262-21.53033538 21.53033902v309.05571872z"  /><path d="M699.77723853 651.3277764v-36.92861444c0-11.71904378 9.53875714-21.25780097 21.2578009-21.25780095h87.48402853c11.71904378 0 21.25780097 9.53875714 21.25780088 21.25780095v36.92861444c0 11.71904378-9.53875714 21.25780097-21.25780088 21.25780095h-87.48402853c-11.71904378 0-21.25780097-9.53875714-21.2578009-21.25780095zM699.77723853 749.9857761v-36.79234904c0-11.71904378 9.53875714-21.25780097 21.2578009-21.25780092h87.48402853c11.71904378 0 21.25780097 9.53875714 21.25780088 21.25780092v36.79234904c0 11.71904378-9.53875714 21.25780097-21.25780088 21.2578009h-87.48402853c-11.71904378-0.13626908-21.25780097-9.53875714-21.2578009-21.2578009zM699.77723853 848.50750668v-36.79234903c0-11.71904378 9.53875714-21.25780097 21.2578009-21.25780088h87.48402853c11.71904378 0 21.25780097 9.53875714 21.25780088 21.25780088v36.79234903c0 11.71904378-9.53875714 21.25780097-21.25780088 21.25780088h-87.48402853c-11.71904378-0.13626908-21.25780097-9.53875714-21.2578009-21.25780088zM533.66660441 651.3277764v-36.92861444c0-11.71904378 9.53875714-21.25780097 21.25780094-21.25780095h87.48402486c11.71904378 0 21.25780097 9.53875714 21.25780092 21.25780095v36.92861444c0 11.71904378-9.53875714 21.25780097-21.25780092 21.25780095h-87.48402486c-11.85531286 0-21.25780097-9.53875714-21.25780094-21.25780095zM533.66660441 749.9857761v-36.79234904c0-11.71904378 9.53875714-21.25780097 21.25780094-21.25780092h87.48402486c11.71904378 0 21.25780097 9.53875714 21.25780092 21.25780092v36.79234904c0 11.71904378-9.53875714 21.25780097-21.25780092 21.2578009h-87.48402486c-11.85531286-0.13626908-21.25780097-9.53875714-21.25780094-21.2578009zM533.66660441 848.50750668v-36.79234903c0-11.71904378 9.53875714-21.25780097 21.25780094-21.25780088h87.48402486c11.71904378 0 21.25780097 9.53875714 21.25780092 21.25780088v36.79234903c0 11.71904378-9.53875714 21.25780097-21.25780092 21.25780088h-87.48402486c-11.85531286-0.13626908-21.25780097-9.53875714-21.25780094-21.25780088zM367.41970131 651.3277764v-36.92861444c0-11.71904378 9.53875714-21.25780097 21.25780095-21.25780095h87.48402481c11.71904378 0 21.25780097 9.53875714 21.25780087 21.25780095v36.92861444c0 11.71904378-9.53875714 21.25780097-21.25780087 21.25780095h-87.48402481c-11.85531286 0-21.25780097-9.53875714-21.25780095-21.25780095zM367.41970131 749.9857761v-36.79234904c0-11.71904378 9.53875714-21.25780097 21.25780095-21.25780092h87.48402481c11.71904378 0 21.25780097 9.53875714 21.25780087 21.25780092v36.79234904c0 11.71904378-9.53875714 21.25780097-21.25780087 21.2578009h-87.48402481c-11.85531286-0.13626908-21.25780097-9.53875714-21.25780095-21.2578009zM367.41970131 848.50750668v-36.79234903c0-11.71904378 9.53875714-21.25780097 21.25780095-21.25780088h87.48402481c11.71904378 0 21.25780097 9.53875714 21.25780087 21.25780088v36.79234903c0 11.71904378-9.53875714 21.25780097-21.25780087 21.25780088h-87.48402481c-11.85531286-0.13626908-21.25780097-9.53875714-21.25780095-21.25780088zM201.17279817 749.9857761v-36.79234904c0-11.71904378 9.53875714-21.25780097 21.25780093-21.25780092h87.48402477c11.71904378 0 21.25780097 9.53875714 21.25780099 21.25780092v36.79234904c0 11.71904378-9.53875714 21.25780097-21.25780099 21.2578009h-87.48402477c-11.85531286-0.13626908-21.25780097-9.53875714-21.25780093-21.2578009zM201.17279817 848.50750668v-36.79234903c0-11.71904378 9.53875714-21.25780097 21.25780093-21.25780088h87.48402477c11.71904378 0 21.25780097 9.53875714 21.25780099 21.25780088v36.79234903c0 11.71904378-9.53875714 21.25780097-21.25780099 21.25780088h-87.48402477c-11.85531286-0.13626908-21.25780097-9.53875714-21.25780093-21.25780088z"  /></svg>