<?xml version="1.0" standalone="no"?><!DOCTYPE svg PUBLIC "-//W3C//DTD SVG 1.1//EN" "http://www.w3.org/Graphics/SVG/1.1/DTD/svg11.dtd"><svg t="1541142298298" class="icon" style="" viewBox="0 0 1054 1024" version="1.1" xmlns="http://www.w3.org/2000/svg" p-id="5507" xmlns:xlink="http://www.w3.org/1999/xlink" width="205.859375" height="200"><defs><style type="text/css"></style></defs><path d="M563.526362 955.269329h-27.285642a28.64503 28.64503 0 0 1-28.471028-28.710281v-0.326253a133.274427 133.274427 0 0 1-26.100254-10.766355l-0.184877 0.217502a28.384027 28.384027 0 0 1-40.129142 0.108751l-0.108751-0.108751-19.292439-19.46644a28.884282 28.884282 0 0 1 0-40.564146l0.184877-0.217502a142.648768 142.648768 0 0 1-10.79898-26.209006H411.079123a28.655905 28.655905 0 0 1-28.460153-28.71028v-27.405268a28.601529 28.601529 0 0 1 28.460153-28.71028h0.282753c2.718777-9.069839 6.318437-17.846049 10.766355-26.209006l-0.184877-0.217503a28.884282 28.884282 0 0 1 0-40.564146l19.303314-19.357689a28.090399 28.090399 0 0 1 39.748513-0.478504l0.48938 0.478504 0.163126 0.108751c8.330331-4.447918 17.073917-8.091079 26.100255-10.875106v-0.217502a28.66678 28.66678 0 0 1 28.460153-28.71028h27.307392a28.677655 28.677655 0 0 1 28.481903 28.71028v0.217502c9.026338 2.784027 17.769924 6.427188 26.100255 10.875106l0.184877-0.108751a28.090399 28.090399 0 0 1 39.748513-0.478504l0.48938 0.478504 19.325063 19.357689a28.884282 28.884282 0 0 1 0 40.564146l-0.184876 0.217503c4.447918 8.362957 8.069329 17.139167 10.788105 26.209006h0.282753a28.68853 28.68853 0 0 1 28.460153 28.71028v27.405268a28.601529 28.601529 0 0 1-28.460153 28.71028H688.394331a140.114868 140.114868 0 0 1-10.79898 26.209006l0.184877 0.217502a28.884282 28.884282 0 0 1 0 40.564146l-19.270688 19.357689a28.949533 28.949533 0 0 1-40.237893 0l-0.184877-0.108751c-8.297706 4.502294-17.041291 8.112829-26.100255 10.766355v0.326253a28.655905 28.655905 0 0 1-28.460153 28.710281z m-84.195072-57.746814l4.741546 2.827527a129.631266 129.631266 0 0 0 32.625319 13.593883l5.296176 1.413764v11.201359a14.28989 14.28989 0 0 0 14.235514 14.355141h27.285642a14.322515 14.322515 0 0 0 14.257264-14.355141v-11.201359l5.274427-1.413764a129.631266 129.631266 0 0 0 32.625318-13.593883l4.741546-2.827527 7.884452 8.047578c5.66593 5.328802 14.485641 5.328802 20.151572 0l19.270688-19.46644c2.675276-2.686151 4.176041-6.318437 4.176041-10.113848a13.854885 13.854885 0 0 0-4.176041-10.113849l-7.862701-7.938828 2.773152-4.785046c5.981308-10.309601 10.527103-21.402209 13.506882-32.951572l1.392013-5.220051h11.146984a14.35514 14.35514 0 0 0 14.224639-14.35514v-27.514019a14.31164 14.31164 0 0 0-14.224639-14.35514H677.519225l-1.392013-5.328802a130.751402 130.751402 0 0 0-13.496007-32.842821l-2.773152-4.785047 7.851826-7.938827a14.322515 14.322515 0 0 0 0-20.227698l-19.270688-19.46644a14.463891 14.463891 0 0 0-20.140697 0l-7.884452 7.938828-4.752421-2.827528a129.631266 129.631266 0 0 0-32.625319-13.593883l-5.274426-1.413764V647.068819a14.300765 14.300765 0 0 0-14.246389-14.35514h-27.296517a14.28989 14.28989 0 0 0-14.235514 14.35514v11.201359l-5.296176 1.413764a129.631266 129.631266 0 0 0-32.625319 13.593883l-4.741546 2.827528-7.862702-7.938828a14.463891 14.463891 0 0 0-20.140697 0l-19.303313 19.357689a14.507392 14.507392 0 0 0 0 20.336449l7.884452 7.830076-2.773152 4.893798a129.685641 129.685641 0 0 0-13.517757 32.842821l-1.381139 5.328802H411.079123a14.28989 14.28989 0 0 0-14.235514 14.344265v27.416143a14.28989 14.28989 0 0 0 14.235514 14.35514h11.136109l1.402889 5.328802a132.197791 132.197791 0 0 0 13.517757 32.951572l2.773152 4.676295-7.862702 7.938828a14.507392 14.507392 0 0 0 0 20.336448l19.303313 19.46644c5.655055 5.328802 14.485641 5.328802 20.140697 0l7.840952-8.047578z m70.568564-36.431606a74.276975 74.276975 0 1 1 73.722345-74.831606v0.554631a74.081223 74.081223 0 0 1-73.722345 74.276975z m0-134.19881a59.921835 59.921835 0 1 0 59.519456 60.324214v-0.402379a59.813084 59.813084 0 0 0-59.519456-59.921835zM47.665699 1024a47.850467 47.850467 0 0 1-47.676465-47.959218v-526.355141a47.850467 47.850467 0 0 1 47.676465-47.959218h60.563467V62.858114A62.597111 62.597111 0 0 1 170.532649 0.108751h128.717757a62.597111 62.597111 0 0 1 62.303484 62.749363v406.837723l1.08751 1.305013a208.584537 208.584537 0 0 0 32.309941 33.82158l8.156329 6.742566V62.858114A62.597111 62.597111 0 0 1 465.411154 0.108751h128.717757a62.597111 62.597111 0 0 1 62.303483 62.749363v445.226848l8.265081-7.395072a208.878165 208.878165 0 0 0 59.813084-90.372133l2.881903-8.591334h17.726423L681.488639 159.864061a45.207816 45.207816 0 0 1 31.787935-55.136788l101.82362-27.079015a40.944775 40.944775 0 0 1 11.418861-1.522515 44.794562 44.794562 0 0 1 43.304673 33.495328l76.832625 292.105352h60.650468a47.850467 47.850467 0 0 1 47.676465 47.959218v526.355141a47.850467 47.850467 0 0 1-47.676465 47.959218H47.665699z m0-596.934579a22.565845 22.565845 0 0 0-22.53322 22.62022v526.355141a22.57672 22.57672 0 0 0 22.53322 22.620221h959.543246a22.587596 22.587596 0 0 0 22.53322-22.620221v-526.355141a22.587596 22.587596 0 0 0-22.53322-22.62022H745.205886l-1.239762 3.15378c-46.59983 119.582668-181.331521 178.754121-300.914189 132.143416A232.368394 232.368394 0 0 1 310.90852 430.219201l-1.250637-3.15378H47.665699zM465.345903 19.575191a43.261172 43.261172 0 0 0-43.00017 43.282923v461.213254l2.523025 1.522515a206.474766 206.474766 0 0 0 209.802549-2.718777l2.414273-1.413764V62.858114a43.152421 43.152421 0 0 0-43.011045-43.282923H465.345903z m-134.851317 390.742566c0.402379 1.196262 0.870008 2.392523 1.326763 3.588785l0.815633 2.175021 9.657094-1.740017V62.858114A43.152421 43.152421 0 0 0 299.283031 19.575191H170.521774a43.282923 43.282923 0 0 0-43.00017 43.282923v338.868309h200.101954l2.871028 8.591334zM826.50818 95.483432a26.937638 26.937638 0 0 0-6.525064 0.870009l-101.790994 27.187765a25.382498 25.382498 0 0 0-15.497026 11.853866 25.741376 25.741376 0 0 0-2.588275 19.46644l64.924384 246.864911H926.559157l-75.538488-287.102804A25.480374 25.480374 0 0 0 826.50818 95.483432z m-87.174851 97.767205l96.657944-25.774001 6.438063 24.468988-96.657944 25.774002-6.438063-24.468989z m-278.707222-34.256584v-44.914189h138.255225v44.914189H460.582607h0.0435z m-294.824129 0v-44.914189H304.068078v44.914189H165.758477h0.043501z" p-id="5508"></path></svg>