<?xml version="1.0" standalone="no"?><!DOCTYPE svg PUBLIC "-//W3C//DTD SVG 1.1//EN" "http://www.w3.org/Graphics/SVG/1.1/DTD/svg11.dtd"><svg class="icon" width="200px" height="200.00px" viewBox="0 0 1024 1024" version="1.1" xmlns="http://www.w3.org/2000/svg"><path d="M624.2 373H398.9c-50.7 0-92-41.3-92-92V126.3c0-50.7 41.3-92 92-92h225.3c50.7 0 92 41.3 92 92V281c0 50.7-41.3 92-92 92zM398.9 98.3c-15.4 0-28 12.6-28 28V281c0 15.4 12.6 28 28 28h225.3c15.4 0 28-12.6 28-28V126.3c0-15.4-12.6-28-28-28H398.9z m-176 870.3H92.5c-50.7 0-92-41.3-92-92V744.4c0-50.7 41.3-92 92-92h130.4c50.7 0 92 41.3 92 92v132.2c0 50.7-41.3 92-92 92zM92.5 716.4c-15.4 0-28 12.6-28 28v132.2c0 15.4 12.6 28 28 28h130.4c15.4 0 28-12.6 28-28V744.4c0-15.4-12.6-28-28-28H92.5zM932 968.6H801.7c-50.7 0-92-41.3-92-92V744.4c0-50.7 41.3-92 92-92H932c50.7 0 92 41.3 92 92v132.2c0 50.7-41.2 92-92 92zM801.7 716.4c-15.4 0-28 12.6-28 28v132.2c0 15.4 12.6 28 28 28H932c15.4 0 28-12.6 28-28V744.4c0-15.4-12.6-28-28-28H801.7zM577.3 968.6H446.9c-50.7 0-92-41.3-92-92V744.4c0-50.7 41.3-92 92-92h130.4c50.7 0 92 41.3 92 92v132.2c0 50.7-41.3 92-92 92zM446.9 716.4c-15.4 0-28 12.6-28 28v132.2c0 15.4 12.6 28 28 28h130.4c15.4 0 28-12.6 28-28V744.4c0-15.4-12.6-28-28-28H446.9z m422.5-106.9c-17.7 0-32-14.3-32-32v-32.9H187.2v32.9c0 17.7-14.3 32-32 32s-32-14.3-32-32v-64.9c0-17.7 14.3-32 32-32h714.1c17.7 0 32 14.3 32 32v64.9c0.1 17.7-14.2 32-31.9 32zM512.1 609.5c-17.7 0-32-14.3-32-32V447.9c0-17.7 14.3-32 32-32s32 14.3 32 32v129.6c0 17.7-14.3 32-32 32z" /></svg>