<?xml version="1.0" standalone="no"?><!DOCTYPE svg PUBLIC "-//W3C//DTD SVG 1.1//EN" "http://www.w3.org/Graphics/SVG/1.1/DTD/svg11.dtd"><svg class="icon" width="200px" height="200.00px" viewBox="0 0 1024 1024" version="1.1" xmlns="http://www.w3.org/2000/svg"><path  d="M302.738483 74.188068c-108.468072 0-196.777456 88.309383-196.777456 196.777456 0 108.468072 88.309383 196.777456 196.777456 196.777456l169.558109 0c15.04227 0 27.219346-12.177076 27.219346-27.219346L499.515939 270.965524C499.515939 162.497452 411.308884 74.188068 302.738483 74.188068zM445.179574 413.304287 302.738483 413.304287c-78.48586 0-142.338763-63.852903-142.338763-142.338763C160.39972 192.479664 224.354952 128.626761 302.738483 128.626761 381.224343 128.626761 445.179574 192.479664 445.179574 270.965524L445.179574 413.304287zM582.708904 467.74298l169.558109 0c108.468072 0 196.777456-88.309383 196.777456-196.777456 0-108.468072-88.309383-196.777456-196.777456-196.777456S555.489557 162.497452 555.489557 270.965524l0 169.558109C555.489557 455.565904 567.666633 467.74298 582.708904 467.74298zM609.92825 270.965524C609.92825 192.479664 673.781153 128.626761 752.267013 128.626761c78.48586 0 142.338763 63.852903 142.338763 142.338763 0 78.48586-63.852903 142.338763-142.338763 142.338763L609.92825 413.304287 609.92825 270.965524zM472.296592 522.795643 302.738483 522.795643c-108.468072 0-196.777456 88.309383-196.777456 196.777456 0 108.468072 88.309383 196.777456 196.777456 196.777456 108.468072 0 196.777456-88.309383 196.777456-196.777456L499.515939 550.01499C499.515939 534.972719 487.338863 522.795643 472.296592 522.795643zM445.179574 719.573099c0 78.48586-63.852903 142.338763-142.338763 142.338763-78.48586 0-142.338763-63.852903-142.338763-142.338763s63.852903-142.338763 142.338763-142.338763L445.179574 577.234336 445.179574 719.573099zM752.267013 522.795643 582.708904 522.795643c-15.04227 0-27.219346 12.177076-27.219346 27.219346l0 169.558109c0 108.468072 88.207055 196.777456 196.777456 196.777456 108.468072 0 196.777456-88.309383 196.777456-196.777456C949.044469 611.105026 860.837414 522.795643 752.267013 522.795643zM752.267013 861.911862c-78.48586 0-142.338763-63.852903-142.338763-142.338763L609.92825 577.234336l142.338763 0c78.48586 0 142.338763 63.852903 142.338763 142.338763C894.605776 798.161287 830.752873 861.911862 752.267013 861.911862z" /></svg>