<?xml version="1.0" standalone="no"?><!DOCTYPE svg PUBLIC "-//W3C//DTD SVG 1.1//EN" "http://www.w3.org/Graphics/SVG/1.1/DTD/svg11.dtd"><svg class="icon" width="200px" height="180.12px" viewBox="0 0 1137 1024" version="1.1" xmlns="http://www.w3.org/2000/svg"><path  d="M227.555556 284.558222A56.888889 56.888889 0 0 1 284.444444 227.555556h796.444445c31.402667 0 56.888889 25.941333 56.888889 57.002666v568.661334A56.888889 56.888889 0 0 1 1081.002667 910.222222H625.777778l-227.555556 113.777778v-113.777778H284.387556C252.984889 910.222222 227.555556 884.280889 227.555556 853.219556V284.558222z m170.666666 256.170667v56.32c0 16.554667 12.856889 28.728889 28.728889 28.728889h56.32c16.554667 0 28.728889-12.856889 28.728889-28.728889v-56.32A28.273778 28.273778 0 0 0 483.271111 512h-56.32A28.273778 28.273778 0 0 0 398.222222 540.728889z m227.555556 0v56.32c0 16.554667 12.856889 28.728889 28.728889 28.728889h56.32c16.554667 0 28.728889-12.856889 28.728889-28.728889v-56.32A28.273778 28.273778 0 0 0 710.826667 512h-56.32a28.273778 28.273778 0 0 0-28.728889 28.728889z m227.555555 0v56.32c0 16.554667 12.856889 28.728889 28.728889 28.728889h56.32c16.554667 0 28.728889-12.856889 28.728889-28.728889v-56.32A28.273778 28.273778 0 0 0 938.382222 512h-56.32a28.273778 28.273778 0 0 0-28.728889 28.728889zM910.222222 170.666667H227.555556a56.888889 56.888889 0 0 0-56.888889 57.002666V739.555556H56.832C25.429333 739.555556 0 713.614222 0 682.552889V57.002667A56.888889 56.888889 0 0 1 56.888889 0h796.444444c31.402667 0 56.888889 25.941333 56.888889 57.002667V170.666667z" /></svg>