<?xml version="1.0" standalone="no"?><!DOCTYPE svg PUBLIC "-//W3C//DTD SVG 1.1//EN" "http://www.w3.org/Graphics/SVG/1.1/DTD/svg11.dtd"><svg class="icon" width="200px" height="200.00px" viewBox="0 0 1024 1024" version="1.1" xmlns="http://www.w3.org/2000/svg"><path d="M736.256 312.6272A299.52 299.52 0 1 0 288.0512 572.416 434.9952 434.9952 0 0 0 2.56 980.6848a32.9728 32.9728 0 1 0 65.9456 0 368.64 368.64 0 0 1 368.64-368.64h3.9936A299.8272 299.8272 0 0 0 736.256 312.6272z m-532.992 0a233.5744 233.5744 0 1 1 233.5744 233.5744 233.8816 233.8816 0 0 1-233.5744-233.5744zM775.3728 676.9664a102.4 102.4 0 1 0 102.4 102.4 102.4 102.4 0 0 0-102.4-102.4z m0 138.0352a36.0448 36.0448 0 1 1 36.0448-36.0448 36.1472 36.1472 0 0 1-36.0448 36.0448zM1017.6512 730.2144a53.3504 53.3504 0 0 0-51.2-46.7968h-1.6384A22.8352 22.8352 0 0 1 942.08 660.6848a31.9488 31.9488 0 0 1 2.1504-8.2944 57.856 57.856 0 0 0-19.7632-70.4512l-1.9456-1.3312-56.5248-31.4368-2.048-0.9216a58.5728 58.5728 0 0 0-23.4496-4.8128 60.8256 60.8256 0 0 0-43.7248 18.1248 67.2768 67.2768 0 0 1-20.48 14.1312 67.584 67.584 0 0 1-20.48-14.336A60.8256 60.8256 0 0 0 712.0896 542.72a58.6752 58.6752 0 0 0-23.1424 4.608l-2.048 0.9216-58.4704 32.1536-1.9456 1.3312a57.856 57.856 0 0 0-20.48 70.5536 31.8464 31.8464 0 0 1 2.1504 8.2944 22.8352 22.8352 0 0 1-22.8352 22.8352H583.68a53.3504 53.3504 0 0 0-51.2 46.7968 296.96 296.96 0 0 0-5.0176 48.128 297.5744 297.5744 0 0 0 5.0176 48.128c5.3248 27.9552 25.6 46.7968 50.688 46.7968h2.1504a22.8352 22.8352 0 0 1 22.8352 22.8352 31.8464 31.8464 0 0 1-2.1504 8.2944 57.9584 57.9584 0 0 0 19.8656 70.5536l1.8432 1.3312 55.5008 30.72 2.048 0.9216a58.2656 58.2656 0 0 0 23.552 4.8128 60.3136 60.3136 0 0 0 44.4416-19.1488 71.68 71.68 0 0 1 20.48-14.9504 69.3248 69.3248 0 0 1 20.48 15.2576A60.3136 60.3136 0 0 0 839.68 1013.76a58.2656 58.2656 0 0 0 23.1424-4.7104l2.1504-0.9216 57.4464-31.744 1.8432-1.3312a57.856 57.856 0 0 0 19.968-70.5536 31.8464 31.8464 0 0 1-2.1504-8.2944 22.8352 22.8352 0 0 1 22.8352-22.8352h1.6384c25.2928 0 45.8752-18.432 51.2-46.6944a300.4416 300.4416 0 0 0 5.12-48.2304 301.6704 301.6704 0 0 0-5.2224-48.2304z m-411.136-77.824z m337.92 251.904zM666.8288 625.8688zM883.8144 930.816z m70.144-122.88A87.1424 87.1424 0 0 0 880.64 923.7504l-40.96 22.528c-10.24-10.24-36.5568-33.5872-66.048-33.5872s-55.9104 23.4496-65.6384 32.8704l-39.0144-21.8112a87.1424 87.1424 0 0 0-72.9088-115.8144A212.992 212.992 0 0 1 593.92 778.24a212.992 212.992 0 0 1 2.8672-29.696 87.04 87.04 0 0 0 72.9088-115.712l42.0864-23.1424c10.24 9.4208 36.0448 31.8464 64.8192 31.8464s54.4768-21.8112 64.3072-30.72L880.64 632.9344a87.1424 87.1424 0 0 0 72.9088 115.712 210.6368 210.6368 0 0 1 2.8672 29.696 212.5824 212.5824 0 0 1-2.4576 29.696z" /></svg>