<?xml version="1.0" standalone="no"?><!DOCTYPE svg PUBLIC "-//W3C//DTD SVG 1.1//EN" "http://www.w3.org/Graphics/SVG/1.1/DTD/svg11.dtd"><svg class="icon" width="200px" height="200.00px" viewBox="0 0 1024 1024" version="1.1" xmlns="http://www.w3.org/2000/svg"><path d="M502.8352 215.6032a17.92 17.92 0 1 0 0 35.9424h323.3792a17.92 17.92 0 1 0 0-35.9424H502.8352zM844.1856 485.0688a17.92 17.92 0 0 0-17.9712-17.9712H502.8352a17.92 17.92 0 1 0 0 35.9424h323.3792a17.92 17.92 0 0 0 17.9712-17.9712zM387.4816 130.0992a17.92 17.92 0 0 0-25.2928 1.9456L249.9584 262.9632 181.2992 211.456a17.92 17.92 0 0 0-21.5552 28.7232l82.1248 61.5936a17.92 17.92 0 0 0 24.4224-2.7136l123.1872-143.7184a17.8176 17.8176 0 0 0-1.9968-25.2416zM387.4816 381.5936a17.92 17.92 0 0 0-25.2928 1.9456l-112.2304 130.9184-68.6592-51.5072a17.9712 17.9712 0 0 0-21.5552 28.7744l82.1248 61.5936a17.92 17.92 0 0 0 24.4224-2.7136l123.1872-143.7184a17.92 17.92 0 0 0-1.9968-25.2928zM362.1888 653.0048l-112.2304 130.9184-68.6592-51.5072a17.9712 17.9712 0 0 0-21.5552 28.7232l82.1248 61.5936a17.92 17.92 0 0 0 24.4224-2.7136l123.1872-143.7184a17.92 17.92 0 1 0-27.2896-23.296z"  /><path fill="#ffffff" d="M484.9152 934.1952H236.544a182.9888 182.9888 0 0 1-182.8352-182.8352V218.7264A182.9888 182.9888 0 0 1 236.544 35.8912h532.6336a182.9888 182.9888 0 0 1 182.8352 182.8352v374.1184a17.92 17.92 0 1 0 35.9424 0V218.7264A219.0336 219.0336 0 0 0 769.1776 0H236.544A218.9312 218.9312 0 0 0 17.8176 218.7264v532.6336a218.9312 218.9312 0 0 0 218.7264 218.7264h248.3712a17.92 17.92 0 1 0 0-35.8912z"  /><path fill="#ffffff" d="M870.4 637.1328c0 10.0352-7.6288 18.2272-17.0496 18.2272h-273.0496c-9.472 0-17.1008-8.1408-17.1008-18.2272v-4.5568c0-10.0352 7.6288-18.176 17.0496-18.176h273.0496c9.472 0 17.1008 8.1408 17.1008 18.2272v4.5056zM870.4 1005.7728c0 10.0864-7.6288 18.2272-17.0496 18.2272h-273.0496c-9.472 0-17.1008-8.1408-17.1008-18.2272v-4.5568c0-10.0352 7.6288-18.2272 17.0496-18.2272h273.0496c9.4208 0 17.0496 8.1408 17.0496 18.2272v4.5568H870.4z"  /><path fill="#ffffff" d="M716.8 820.0192l-3.2256-1.4848a416.9728 416.9728 0 0 1-67.3792-40.0896c-44.3904-32.6656-67.8912-66.5088-67.8912-97.9456 0-18.7392 15.36-34.3552 44.4416-45.2608 24.9344-9.3184 58.3168-14.4384 94.1056-14.4384s69.1712 5.12 94.1056 14.4384c29.0816 10.8544 44.4416 26.5216 44.4416 45.2608 0 31.4368-23.4496 65.28-67.8912 97.9456-33.28 24.4736-66.048 39.4752-67.3792 40.0896l-3.328 1.4848z m0-191.5392c-33.792 0-65.2288 4.7616-88.4736 13.4656-17.6128 6.6048-38.5536 18.6368-38.5536 38.5536 0 37.2736 35.2768 71.0144 64.9216 92.8256a419.84 419.84 0 0 0 62.1568 37.376c9.0624-4.4032 35.84-18.0224 62.3104-37.4784 29.5424-21.76 64.7168-55.4496 64.7168-92.672 0-19.968-20.992-32-38.5536-38.5536-23.296-8.7552-54.7328-13.5168-88.5248-13.5168z"  /><path fill="#ffffff" d="M716.8 1013.76c-35.7376 0-69.1712-5.12-94.1056-14.4384-29.0816-10.8544-44.4416-26.5216-44.4416-45.2608 0-31.4368 23.4496-65.28 67.8912-97.9456 33.28-24.4736 66.048-39.4752 67.3792-40.0896L716.8 814.592l3.2256 1.4848c1.3824 0.6144 34.1504 15.616 67.3792 40.0896 44.3904 32.6656 67.8912 66.5088 67.8912 97.9456 0 18.7392-15.36 34.3552-44.4416 45.2608-24.8832 9.2672-58.3168 14.3872-94.0544 14.3872z m0-189.8496c-9.0624 4.4032-35.84 18.0224-62.3104 37.4784-29.5424 21.76-64.7168 55.4496-64.7168 92.672 0 19.968 20.992 32 38.5536 38.5536 23.2448 8.704 54.6816 13.4656 88.4736 13.4656s65.2288-4.7616 88.4736-13.4656c17.6128-6.6048 38.5536-18.6368 38.5536-38.5536 0-37.2224-35.2256-70.912-64.7168-92.672A425.1136 425.1136 0 0 0 716.8 823.9104zM807.3728 713.728c0 50.4832-90.5728 91.4432-90.5728 91.4432s-90.5728-40.96-90.5728-91.4432 181.1456-50.5344 181.1456 0z"  /></svg>