<?xml version="1.0" standalone="no"?><!DOCTYPE svg PUBLIC "-//W3C//DTD SVG 1.1//EN" "http://www.w3.org/Graphics/SVG/1.1/DTD/svg11.dtd"><svg t="1541142050004" class="icon" style="" viewBox="0 0 1024 1024" version="1.1" xmlns="http://www.w3.org/2000/svg" p-id="4126" xmlns:xlink="http://www.w3.org/1999/xlink" width="200" height="200"><defs><style type="text/css"></style></defs><path d="M447.650273 447.650273h-447.650273v-447.650273h447.650273v447.650273z m-391.693989-55.956284h335.737705v-335.737705h-335.737705v335.737705zM447.650273 951.256831h-447.650273v-447.650274h447.650273v447.650274z m-391.693989-55.956285h335.737705v-335.737704h-335.737705v335.737704zM951.256831 447.650273h-447.650274v-447.650273h447.650274v447.650273z m-391.693989-55.956284h335.737704v-335.737705h-335.737704v335.737705zM979.234973 705.04918l-50.360656-11.191257c0-5.595628-5.595628-11.191257-11.191257-22.382513l27.978142-39.169399c5.595628-11.191257 5.595628-27.978142-5.595628-39.169399l-27.978142-27.978142c-11.191257-11.191257-27.978142-11.191257-39.169399-5.595628l-39.169399 27.978142c-5.595628-5.595628-11.191257-5.595628-22.382514-11.191257l-11.191257-50.360656c-5.595628-16.786885-16.786885-27.978142-33.57377-27.978142h-44.765027c-16.786885 0-27.978142 11.191257-33.573771 27.978142l-11.191257 50.360656c-5.595628 0-11.191257 5.595628-22.382513 11.191257l-39.169399-27.978142c-11.191257-5.595628-27.978142-5.595628-39.169399 5.595628l-27.978142 27.978142c-11.191257 11.191257-11.191257 27.978142-5.595629 39.169399l27.978142 39.169399c-5.595628 5.595628-5.595628 11.191257-11.191256 22.382513l-50.360656 11.191257c-16.786885 5.595628-27.978142 16.786885-27.978142 33.573771v44.765027c0 16.786885 11.191257 27.978142 27.978142 33.573771l50.360656 11.191256c0 5.595628 5.595628 11.191257 11.191256 22.382514l-27.978142 39.169399c-5.595628 11.191257-5.595628 27.978142 5.595629 39.169399l27.978142 27.978142c11.191257 11.191257 27.978142 11.191257 39.169399 5.595628l39.169399-27.978142c5.595628 5.595628 11.191257 5.595628 22.382513 11.191257l11.191257 50.360656c5.595628 16.786885 16.786885 27.978142 33.573771 27.978142h44.765027c16.786885 0 27.978142-11.191257 33.57377-27.978142l11.191257-50.360656c5.595628 0 11.191257-5.595628 22.382514-11.191257l39.169399 27.978142c11.191257 5.595628 27.978142 5.595628 39.169399-5.595628l27.978142-27.978142c11.191257-11.191257 11.191257-27.978142 5.595628-39.169399l-27.978142-39.169399c5.595628-5.595628 5.595628-11.191257 11.191257-22.382514l50.360656-11.191256c16.786885-5.595628 27.978142-16.786885 27.978142-33.573771v-44.765027c0-22.382514-11.191257-33.57377-27.978142-33.573771z m-50.360656 83.934427c-11.191257 0-22.382514 11.191257-22.382514 22.382513 0 5.595628-5.595628 11.191257-5.595628 16.786885-5.595628 11.191257-5.595628 22.382514 0 33.573771l27.978142 39.169399-27.978142 27.978142-39.169399-27.978142c-11.191257-5.595628-22.382514-5.595628-33.573771 0-5.595628 0-11.191257 5.595628-16.786885 5.595628-11.191257 5.595628-16.786885 11.191257-22.382513 22.382514l-11.191257 50.360656h-44.765028l-11.191256-50.360656c0-11.191257-11.191257-22.382514-22.382514-22.382514-5.595628 0-11.191257-5.595628-16.786885-5.595628-11.191257-5.595628-22.382514-5.595628-33.573771 0l-39.169399 27.978142-27.978142-27.978142 27.978142-39.169399c5.595628-11.191257 5.595628-22.382514 0-33.573771 0-5.595628-5.595628-11.191257-5.595628-16.786885-5.595628-11.191257-11.191257-16.786885-22.382514-22.382513l-50.360656-11.191257v-44.765028l50.360656-11.191256c11.191257 0 22.382514-11.191257 22.382514-22.382514 0-5.595628 5.595628-11.191257 5.595628-16.786885 5.595628-11.191257 5.595628-22.382514 0-33.573771l-27.978142-39.169399 27.978142-27.978142 39.169399 27.978142c11.191257 5.595628 22.382514 5.595628 33.573771 0 5.595628 0 11.191257-5.595628 16.786885-5.595628 11.191257-5.595628 16.786885-11.191257 22.382514-22.382514l11.191256-50.360656h44.765028l11.191257 50.360656c0 11.191257 11.191257 22.382514 22.382513 22.382514 5.595628 0 11.191257 5.595628 16.786885 5.595628 11.191257 5.595628 22.382514 5.595628 33.573771 0l39.169399-27.978142 27.978142 27.978142-27.978142 39.169399c-5.595628 11.191257-5.595628 22.382514 0 33.573771 0 5.595628 5.595628 11.191257 5.595628 16.786885 5.595628 11.191257 11.191257 16.786885 22.382514 22.382514l50.360656 11.191256v44.765028l-50.360656 11.191257z" p-id="4127"></path><path d="M755.409836 867.322404c-61.551913 0-111.912568-50.360656-111.912568-111.912568s50.360656-111.912568 111.912568-111.912568 111.912568 50.360656 111.912568 111.912568-50.360656 111.912568-111.912568 111.912568z m0-167.868852c-33.57377 0-55.956284 22.382514-55.956284 55.956284s22.382514 55.956284 55.956284 55.956284 55.956284-22.382514 55.956284-55.956284-22.382514-55.956284-55.956284-55.956284z" p-id="4128"></path></svg>