<?xml version="1.0" standalone="no"?><!DOCTYPE svg PUBLIC "-//W3C//DTD SVG 1.1//EN" "http://www.w3.org/Graphics/SVG/1.1/DTD/svg11.dtd"><svg class="icon" width="200px" height="199.42px" viewBox="0 0 1027 1024" version="1.1" xmlns="http://www.w3.org/2000/svg"><path d="M195.669333 895.872a20.074667 20.074667 0 0 1-20-20.010667v-74.016c0-145.034667 87.018667-273.066667 222.058667-327.072l26.997333-10.997333-23.008-18.016c-50.005333-39.008-79.018667-98.026667-79.018666-161.045333 0-113.034667 92.021333-205.056 205.045333-205.056 113.034667 0 205.056 92.021333 205.056 205.056 0 63.008-29.002667 122.026667-79.029333 161.045333l-23.008 18.016 27.008 10.997333c135.04 54.005333 222.058667 182.037333 222.058666 327.072v74.016a20.074667 20.074667 0 0 1-20 20.010667H195.669333z m332.085334-406.101333c-172.042667 0-312.074667 140.042667-312.074667 312.074666v54.016h624.16v-54.016c-0.010667-172.032-140.042667-312.074667-312.085333-312.074666z m0-369.098667c-91.018667 0-164.042667 74.016-164.042667 164.042667s73.024 164.042667 164.042667 164.042666 164.042667-74.016 164.042666-164.042666-73.024-164.042667-164.042666-164.042667z m480.128 664.170667a20.064 20.064 0 0 1-20.010667-20v-57.024c0-109.024-74.016-204.042667-180.042667-231.050667-9.002667-1.002667-15.008-6.005333-18.005333-12v-3.008l-1.002667-2.997333v-6.005334l1.002667-2.005333c2.005333-4.010667 2.997333-6.005333 4-7.008 1.994667-2.005333 4-3.989333 6.997333-5.002667 46.016-21.002667 76.021333-66.005333 76.021334-116.021333 0-58.016-39.008-108.021333-94.016-123.04-10.997333-2.997333-17.002667-14.005333-14.005334-25.002667 2.005333-9.002667 10.005333-14.997333 20-14.997333 2.005333 0 4 0 5.002667 1.002667 73.013333 20 124.021333 86.016 124.021333 162.037333 0 42.005333-16 82.026667-44.010666 113.024l-14.997334 14.005333 18.997334 10.005334c92.032 48.010667 150.037333 143.04 150.037333 247.061333v57.024c0.010667 12-8.981333 21.002667-19.989333 21.002667z m-960.245334 0a20.053333 20.053333 0 0 1-20-20v-57.024c0-105.024 57.013333-200.053333 150.037334-248.064l19.008-10.005334-14.005334-16.010666C154.666667 402.741333 138.666667 362.730667 138.666667 320.714667c0-78.016 53.013333-145.045333 128.032-163.04 0.992 0 2.997333-1.002667 5.002666-1.002667 9.002667 0 18.005333 6.005333 20 16a19.157333 19.157333 0 0 1-14.997333 24 127.434667 127.434667 0 0 0-97.034667 124.042667c0 50.005333 30.005333 96.021333 76.021334 116.032 2.997333 1.002667 5.002667 1.994667 5.994666 4 2.005333 2.005333 2.005333 2.986667 4 5.002666 1.002667 2.005333 1.002667 2.005333 1.002667 2.997334v8l-1.002667 5.002666c-2.997333 6.997333-9.002667 11.008-16 12.010667C142.656 503.776 67.637333 597.792 67.637333 707.818667v57.024a20.053333 20.053333 0 0 1-20 20z m0 0"  /></svg>